<?xml version='1.0' encoding='UTF-8' standalone='no'?>
<!-- Created with Fritzing (http://www.fritzing.org/) -->
<svg xmlns="http://www.w3.org/2000/svg" y="0in"  width="2.3in" height="2.84in" viewBox="0 0 165.6 204.48" version="1.2" x="0in" baseProfile="tiny">
    <desc>
        <referenceFile>Adafruit T-Cobbler Plus_pcb.svg</referenceFile>
    </desc>
    <desc >Fritzing footprint generated by brd2svg</desc>
    <g gorn="0.1"  id="silkscreen">
        <path stroke="white" stroke-width="0.576"  fill="none" d="M165.312,0.288L165.312,35.4686A6.912,6.912,0,0,1,158.137,42.6483L115.087,42.6483A6.912,6.912,0,0,0,107.912,49.828L107.912,197.012A6.912,6.912,0,0,1,100.737,204.192L64.8626,204.192A6.912,6.912,0,0,1,57.6876,197.012L57.6876,49.828A6.912,6.912,0,0,0,50.5127,42.6483L7.46294,42.6483A6.912,6.912,0,0,1,0.288,35.4686L0.288,0.288L165.312,0.288"/>
        <g >
            <title >element:JP1</title>
            <g >
                <title >package:1X20_ROUND</title>
            </g>
        </g>
        <g >
            <title >element:JP2</title>
            <g >
                <title >package:1X20_ROUND</title>
            </g>
        </g>
        <g >
            <title >element:X1</title>
            <g >
                <title >package:RASPBERRYPI_B+_IDC</title>
                <line y2="6.48" stroke="white" stroke-width="0.576"  y1="8.28" stroke-linecap="round" x1="154.8" x2="153"/>
                <line y2="6.48" stroke="white" stroke-width="0.576"  y1="6.48" stroke-linecap="round" x1="153" x2="149.4"/>
                <line y2="8.28" stroke="white" stroke-width="0.576"  y1="6.48" stroke-linecap="round" x1="149.4" x2="147.6"/>
                <line y2="6.48" stroke="white" stroke-width="0.576"  y1="8.28" stroke-linecap="round" x1="147.6" x2="145.8"/>
                <line y2="6.48" stroke="white" stroke-width="0.576"  y1="6.48" stroke-linecap="round" x1="145.8" x2="142.2"/>
                <line y2="8.28" stroke="white" stroke-width="0.576"  y1="6.48" stroke-linecap="round" x1="142.2" x2="140.4"/>
                <line y2="6.48" stroke="white" stroke-width="0.576"  y1="8.28" stroke-linecap="round" x1="140.4" x2="138.6"/>
                <line y2="6.48" stroke="white" stroke-width="0.576"  y1="6.48" stroke-linecap="round" x1="138.6" x2="135"/>
                <line y2="8.28" stroke="white" stroke-width="0.576"  y1="6.48" stroke-linecap="round" x1="135" x2="133.2"/>
                <line y2="6.48" stroke="white" stroke-width="0.576"  y1="8.28" stroke-linecap="round" x1="133.2" x2="131.4"/>
                <line y2="6.48" stroke="white" stroke-width="0.576"  y1="6.48" stroke-linecap="round" x1="131.4" x2="127.8"/>
                <line y2="8.28" stroke="white" stroke-width="0.576"  y1="6.48" stroke-linecap="round" x1="127.8" x2="126"/>
                <line y2="6.48" stroke="white" stroke-width="0.576"  y1="8.28" stroke-linecap="round" x1="126" x2="124.2"/>
                <line y2="6.48" stroke="white" stroke-width="0.576"  y1="6.48" stroke-linecap="round" x1="124.2" x2="120.6"/>
                <line y2="8.28" stroke="white" stroke-width="0.576"  y1="6.48" stroke-linecap="round" x1="120.6" x2="118.8"/>
                <line y2="6.48" stroke="white" stroke-width="0.576"  y1="8.28" stroke-linecap="round" x1="118.8" x2="117"/>
                <line y2="6.48" stroke="white" stroke-width="0.576"  y1="6.48" stroke-linecap="round" x1="117" x2="113.4"/>
                <line y2="8.28" stroke="white" stroke-width="0.576"  y1="6.48" stroke-linecap="round" x1="113.4" x2="111.6"/>
                <line y2="19.08" stroke="white" stroke-width="0.576"  y1="8.28" stroke-linecap="round" x1="154.8" x2="154.8"/>
                <line y2="20.88" stroke="white" stroke-width="0.576"  y1="19.08" stroke-linecap="round" x1="154.8" x2="153"/>
                <line y2="20.88" stroke="white" stroke-width="0.576"  y1="20.88" stroke-linecap="round" x1="153" x2="149.4"/>
                <line y2="19.08" stroke="white" stroke-width="0.576"  y1="20.88" stroke-linecap="round" x1="149.4" x2="147.6"/>
                <line y2="20.88" stroke="white" stroke-width="0.576"  y1="19.08" stroke-linecap="round" x1="147.6" x2="145.8"/>
                <line y2="20.88" stroke="white" stroke-width="0.576"  y1="20.88" stroke-linecap="round" x1="145.8" x2="142.2"/>
                <line y2="19.08" stroke="white" stroke-width="0.576"  y1="20.88" stroke-linecap="round" x1="142.2" x2="140.4"/>
                <line y2="20.88" stroke="white" stroke-width="0.576"  y1="19.08" stroke-linecap="round" x1="140.4" x2="138.6"/>
                <line y2="20.88" stroke="white" stroke-width="0.576"  y1="20.88" stroke-linecap="round" x1="138.6" x2="135"/>
                <line y2="19.08" stroke="white" stroke-width="0.576"  y1="20.88" stroke-linecap="round" x1="135" x2="133.2"/>
                <line y2="20.88" stroke="white" stroke-width="0.576"  y1="19.08" stroke-linecap="round" x1="133.2" x2="131.4"/>
                <line y2="20.88" stroke="white" stroke-width="0.576"  y1="20.88" stroke-linecap="round" x1="131.4" x2="127.8"/>
                <line y2="19.08" stroke="white" stroke-width="0.576"  y1="20.88" stroke-linecap="round" x1="127.8" x2="126"/>
                <line y2="20.88" stroke="white" stroke-width="0.576"  y1="19.08" stroke-linecap="round" x1="126" x2="124.2"/>
                <line y2="20.88" stroke="white" stroke-width="0.576"  y1="20.88" stroke-linecap="round" x1="124.2" x2="120.6"/>
                <line y2="19.08" stroke="white" stroke-width="0.576"  y1="20.88" stroke-linecap="round" x1="120.6" x2="118.8"/>
                <line y2="20.88" stroke="white" stroke-width="0.576"  y1="19.08" stroke-linecap="round" x1="118.8" x2="117"/>
                <line y2="20.88" stroke="white" stroke-width="0.576"  y1="20.88" stroke-linecap="round" x1="117" x2="113.4"/>
                <line y2="19.08" stroke="white" stroke-width="0.576"  y1="20.88" stroke-linecap="round" x1="113.4" x2="111.6"/>
                <line y2="20.88" stroke="white" stroke-width="0.576"  y1="19.08" stroke-linecap="round" x1="111.6" x2="109.8"/>
                <line y2="20.88" stroke="white" stroke-width="0.576"  y1="20.88" stroke-linecap="round" x1="109.8" x2="106.2"/>
                <line y2="19.08" stroke="white" stroke-width="0.576"  y1="20.88" stroke-linecap="round" x1="106.2" x2="104.4"/>
                <line y2="20.88" stroke="white" stroke-width="0.576"  y1="19.08" stroke-linecap="round" x1="104.4" x2="102.6"/>
                <line y2="20.88" stroke="white" stroke-width="0.576"  y1="20.88" stroke-linecap="round" x1="102.6" x2="99"/>
                <line y2="19.08" stroke="white" stroke-width="0.576"  y1="20.88" stroke-linecap="round" x1="99" x2="97.2"/>
                <line y2="20.88" stroke="white" stroke-width="0.576"  y1="19.08" stroke-linecap="round" x1="97.2" x2="95.4"/>
                <line y2="20.88" stroke="white" stroke-width="0.576"  y1="20.88" stroke-linecap="round" x1="95.4" x2="91.8"/>
                <line y2="19.08" stroke="white" stroke-width="0.576"  y1="20.88" stroke-linecap="round" x1="91.8" x2="90"/>
                <line y2="20.88" stroke="white" stroke-width="0.576"  y1="19.08" stroke-linecap="round" x1="90" x2="88.2"/>
                <line y2="20.88" stroke="white" stroke-width="0.576"  y1="20.88" stroke-linecap="round" x1="88.2" x2="84.6"/>
                <line y2="19.08" stroke="white" stroke-width="0.576"  y1="20.88" stroke-linecap="round" x1="84.6" x2="82.8"/>
                <line y2="20.88" stroke="white" stroke-width="0.576"  y1="19.08" stroke-linecap="round" x1="82.8" x2="81"/>
                <line y2="20.88" stroke="white" stroke-width="0.576"  y1="20.88" stroke-linecap="round" x1="81" x2="77.4"/>
                <line y2="19.08" stroke="white" stroke-width="0.576"  y1="20.88" stroke-linecap="round" x1="77.4" x2="75.6"/>
                <line y2="20.88" stroke="white" stroke-width="0.576"  y1="19.08" stroke-linecap="round" x1="75.6" x2="73.8"/>
                <line y2="20.88" stroke="white" stroke-width="0.576"  y1="20.88" stroke-linecap="round" x1="73.8" x2="70.2"/>
                <line y2="20.88" stroke="white" stroke-width="0.576"  y1="19.08" stroke-linecap="round" x1="68.4" x2="70.2"/>
                <line y2="20.88" stroke="white" stroke-width="0.576"  y1="19.08" stroke-linecap="round" x1="68.4" x2="66.6"/>
                <line y2="20.88" stroke="white" stroke-width="0.576"  y1="20.88" stroke-linecap="round" x1="63" x2="66.6"/>
                <line y2="19.08" stroke="white" stroke-width="0.576"  y1="20.88" stroke-linecap="round" x1="63" x2="61.2"/>
                <line y2="6.48" stroke="white" stroke-width="0.576"  y1="8.28" stroke-linecap="round" x1="61.2" x2="63"/>
                <line y2="6.48" stroke="white" stroke-width="0.576"  y1="6.48" stroke-linecap="round" x1="63" x2="66.6"/>
                <line y2="6.48" stroke="white" stroke-width="0.576"  y1="8.28" stroke-linecap="round" x1="68.4" x2="66.6"/>
                <line y2="6.48" stroke="white" stroke-width="0.576"  y1="8.28" stroke-linecap="round" x1="68.4" x2="70.2"/>
                <line y2="6.48" stroke="white" stroke-width="0.576"  y1="6.48" stroke-linecap="round" x1="70.2" x2="73.8"/>
                <line y2="6.48" stroke="white" stroke-width="0.576"  y1="8.28" stroke-linecap="round" x1="75.6" x2="73.8"/>
                <line y2="6.48" stroke="white" stroke-width="0.576"  y1="8.28" stroke-linecap="round" x1="75.6" x2="77.4"/>
                <line y2="6.48" stroke="white" stroke-width="0.576"  y1="6.48" stroke-linecap="round" x1="77.4" x2="81"/>
                <line y2="6.48" stroke="white" stroke-width="0.576"  y1="8.28" stroke-linecap="round" x1="82.8" x2="81"/>
                <line y2="6.48" stroke="white" stroke-width="0.576"  y1="8.28" stroke-linecap="round" x1="82.8" x2="84.6"/>
                <line y2="6.48" stroke="white" stroke-width="0.576"  y1="6.48" stroke-linecap="round" x1="84.6" x2="88.2"/>
                <line y2="6.48" stroke="white" stroke-width="0.576"  y1="8.28" stroke-linecap="round" x1="90" x2="88.2"/>
                <line y2="6.48" stroke="white" stroke-width="0.576"  y1="8.28" stroke-linecap="round" x1="90" x2="91.8"/>
                <line y2="6.48" stroke="white" stroke-width="0.576"  y1="6.48" stroke-linecap="round" x1="91.8" x2="95.4"/>
                <line y2="6.48" stroke="white" stroke-width="0.576"  y1="8.28" stroke-linecap="round" x1="97.2" x2="95.4"/>
                <line y2="6.48" stroke="white" stroke-width="0.576"  y1="8.28" stroke-linecap="round" x1="97.2" x2="99"/>
                <line y2="6.48" stroke="white" stroke-width="0.576"  y1="6.48" stroke-linecap="round" x1="99" x2="102.6"/>
                <line y2="6.48" stroke="white" stroke-width="0.576"  y1="8.28" stroke-linecap="round" x1="104.4" x2="102.6"/>
                <line y2="6.48" stroke="white" stroke-width="0.576"  y1="8.28" stroke-linecap="round" x1="104.4" x2="106.2"/>
                <line y2="6.48" stroke="white" stroke-width="0.576"  y1="6.48" stroke-linecap="round" x1="106.2" x2="109.8"/>
                <line y2="6.48" stroke="white" stroke-width="0.576"  y1="8.28" stroke-linecap="round" x1="111.6" x2="109.8"/>
                <line y2="8.28" stroke="white" stroke-width="0.576"  y1="19.08" stroke-linecap="round" x1="147.6" x2="147.6"/>
                <line y2="8.28" stroke="white" stroke-width="0.576"  y1="19.08" stroke-linecap="round" x1="140.4" x2="140.4"/>
                <line y2="8.28" stroke="white" stroke-width="0.576"  y1="19.08" stroke-linecap="round" x1="133.2" x2="133.2"/>
                <line y2="8.28" stroke="white" stroke-width="0.576"  y1="19.08" stroke-linecap="round" x1="126" x2="126"/>
                <line y2="8.28" stroke="white" stroke-width="0.576"  y1="19.08" stroke-linecap="round" x1="118.8" x2="118.8"/>
                <line y2="8.28" stroke="white" stroke-width="0.576"  y1="19.08" stroke-linecap="round" x1="111.6" x2="111.6"/>
                <line y2="8.28" stroke="white" stroke-width="0.576"  y1="19.08" stroke-linecap="round" x1="104.4" x2="104.4"/>
                <line y2="8.28" stroke="white" stroke-width="0.576"  y1="19.08" stroke-linecap="round" x1="97.2" x2="97.2"/>
                <line y2="8.28" stroke="white" stroke-width="0.576"  y1="19.08" stroke-linecap="round" x1="90" x2="90"/>
                <line y2="8.28" stroke="white" stroke-width="0.576"  y1="19.08" stroke-linecap="round" x1="82.8" x2="82.8"/>
                <line y2="8.28" stroke="white" stroke-width="0.576"  y1="19.08" stroke-linecap="round" x1="75.6" x2="75.6"/>
                <line y2="8.28" stroke="white" stroke-width="0.576"  y1="19.08" stroke-linecap="round" x1="68.4" x2="68.4"/>
                <line y2="8.28" stroke="white" stroke-width="0.576"  y1="19.08" stroke-linecap="round" x1="61.2" x2="61.2"/>
                <line y2="5.256" stroke="white" stroke-width="0.576"  y1="5.256" stroke-linecap="round" x1="152.424" x2="149.976"/>
                <line y2="2.88" stroke="white" stroke-width="0.576"  y1="5.256" stroke-linecap="round" x1="149.976" x2="151.2"/>
                <line y2="5.256" stroke="white" stroke-width="0.576"  y1="2.88" stroke-linecap="round" x1="151.2" x2="152.424"/>
                <line y2="3.6" stroke="white" stroke-width="0.576"  y1="2.88" stroke-linecap="round" x1="151.2" x2="151.2"/>
                <line y2="26.4359" stroke="white" stroke-width="0.576"  y1="26.4359" stroke-linecap="round" x1="0.0283465" x2="165.572"/>
                <line y2="0.924091" stroke="white" stroke-width="0.576"  y1="26.4359" stroke-linecap="round" x1="165.572" x2="165.572"/>
                <line y2="0.924091" stroke="white" stroke-width="0.576"  y1="26.4359" stroke-linecap="round" x1="0.0283465" x2="0.0283465"/>
                <line y2="0.924091" stroke="white" stroke-width="0.576"  y1="0.924091" stroke-linecap="round" x1="165.572" x2="89.1778"/>
                <line y2="0.924091" stroke="white" stroke-width="0.576"  y1="0.924091" stroke-linecap="round" x1="76.4222" x2="0.0283465"/>
                <line y2="3.75874" stroke="white" stroke-width="0.576"  y1="3.75874" stroke-linecap="round" x1="89.1778" x2="76.4222"/>
                <line y2="3.75874" stroke="white" stroke-width="0.576"  y1="0.924091" stroke-linecap="round" x1="89.1778" x2="89.1778"/>
                <line y2="0.924091" stroke="white" stroke-width="0.576"  y1="3.75874" stroke-linecap="round" x1="76.4222" x2="76.4222"/>
                <line y2="20.88" stroke="white" stroke-width="0.576"  y1="19.08" stroke-linecap="round" x1="61.2" x2="59.4"/>
                <line y2="20.88" stroke="white" stroke-width="0.576"  y1="20.88" stroke-linecap="round" x1="55.8" x2="59.4"/>
                <line y2="19.08" stroke="white" stroke-width="0.576"  y1="20.88" stroke-linecap="round" x1="55.8" x2="54"/>
                <line y2="6.48" stroke="white" stroke-width="0.576"  y1="8.28" stroke-linecap="round" x1="54" x2="55.8"/>
                <line y2="6.48" stroke="white" stroke-width="0.576"  y1="6.48" stroke-linecap="round" x1="55.8" x2="59.4"/>
                <line y2="6.48" stroke="white" stroke-width="0.576"  y1="8.28" stroke-linecap="round" x1="61.2" x2="59.4"/>
                <line y2="8.28" stroke="white" stroke-width="0.576"  y1="19.08" stroke-linecap="round" x1="54" x2="54"/>
                <line y2="20.88" stroke="white" stroke-width="0.576"  y1="19.08" stroke-linecap="round" x1="54" x2="52.2"/>
                <line y2="20.88" stroke="white" stroke-width="0.576"  y1="20.88" stroke-linecap="round" x1="48.6" x2="52.2"/>
                <line y2="19.08" stroke="white" stroke-width="0.576"  y1="20.88" stroke-linecap="round" x1="48.6" x2="46.8"/>
                <line y2="6.48" stroke="white" stroke-width="0.576"  y1="8.28" stroke-linecap="round" x1="46.8" x2="48.6"/>
                <line y2="6.48" stroke="white" stroke-width="0.576"  y1="6.48" stroke-linecap="round" x1="48.6" x2="52.2"/>
                <line y2="6.48" stroke="white" stroke-width="0.576"  y1="8.28" stroke-linecap="round" x1="54" x2="52.2"/>
                <line y2="8.28" stroke="white" stroke-width="0.576"  y1="19.08" stroke-linecap="round" x1="46.8" x2="46.8"/>
                <line y2="20.88" stroke="white" stroke-width="0.576"  y1="19.08" stroke-linecap="round" x1="46.8" x2="45"/>
                <line y2="20.88" stroke="white" stroke-width="0.576"  y1="20.88" stroke-linecap="round" x1="41.4" x2="45"/>
                <line y2="19.08" stroke="white" stroke-width="0.576"  y1="20.88" stroke-linecap="round" x1="41.4" x2="39.6"/>
                <line y2="6.48" stroke="white" stroke-width="0.576"  y1="8.28" stroke-linecap="round" x1="39.6" x2="41.4"/>
                <line y2="6.48" stroke="white" stroke-width="0.576"  y1="6.48" stroke-linecap="round" x1="41.4" x2="45"/>
                <line y2="6.48" stroke="white" stroke-width="0.576"  y1="8.28" stroke-linecap="round" x1="46.8" x2="45"/>
                <line y2="8.28" stroke="white" stroke-width="0.576"  y1="19.08" stroke-linecap="round" x1="39.6" x2="39.6"/>
                <line y2="20.88" stroke="white" stroke-width="0.576"  y1="19.08" stroke-linecap="round" x1="39.6" x2="37.8"/>
                <line y2="20.88" stroke="white" stroke-width="0.576"  y1="20.88" stroke-linecap="round" x1="34.2" x2="37.8"/>
                <line y2="19.08" stroke="white" stroke-width="0.576"  y1="20.88" stroke-linecap="round" x1="34.2" x2="32.4"/>
                <line y2="6.48" stroke="white" stroke-width="0.576"  y1="8.28" stroke-linecap="round" x1="32.4" x2="34.2"/>
                <line y2="6.48" stroke="white" stroke-width="0.576"  y1="6.48" stroke-linecap="round" x1="34.2" x2="37.8"/>
                <line y2="6.48" stroke="white" stroke-width="0.576"  y1="8.28" stroke-linecap="round" x1="39.6" x2="37.8"/>
                <line y2="8.28" stroke="white" stroke-width="0.576"  y1="19.08" stroke-linecap="round" x1="32.4" x2="32.4"/>
                <line y2="20.88" stroke="white" stroke-width="0.576"  y1="19.08" stroke-linecap="round" x1="32.4" x2="30.6"/>
                <line y2="20.88" stroke="white" stroke-width="0.576"  y1="20.88" stroke-linecap="round" x1="27" x2="30.6"/>
                <line y2="19.08" stroke="white" stroke-width="0.576"  y1="20.88" stroke-linecap="round" x1="27" x2="25.2"/>
                <line y2="6.48" stroke="white" stroke-width="0.576"  y1="8.28" stroke-linecap="round" x1="25.2" x2="27"/>
                <line y2="6.48" stroke="white" stroke-width="0.576"  y1="6.48" stroke-linecap="round" x1="27" x2="30.6"/>
                <line y2="6.48" stroke="white" stroke-width="0.576"  y1="8.28" stroke-linecap="round" x1="32.4" x2="30.6"/>
                <line y2="8.28" stroke="white" stroke-width="0.576"  y1="19.08" stroke-linecap="round" x1="25.2" x2="25.2"/>
                <line y2="20.88" stroke="white" stroke-width="0.576"  y1="19.08" stroke-linecap="round" x1="25.2" x2="23.4"/>
                <line y2="20.88" stroke="white" stroke-width="0.576"  y1="20.88" stroke-linecap="round" x1="19.8" x2="23.4"/>
                <line y2="19.08" stroke="white" stroke-width="0.576"  y1="20.88" stroke-linecap="round" x1="19.8" x2="18"/>
                <line y2="6.48" stroke="white" stroke-width="0.576"  y1="8.28" stroke-linecap="round" x1="18" x2="19.8"/>
                <line y2="6.48" stroke="white" stroke-width="0.576"  y1="6.48" stroke-linecap="round" x1="19.8" x2="23.4"/>
                <line y2="6.48" stroke="white" stroke-width="0.576"  y1="8.28" stroke-linecap="round" x1="25.2" x2="23.4"/>
                <line y2="8.28" stroke="white" stroke-width="0.576"  y1="19.08" stroke-linecap="round" x1="18" x2="18"/>
                <line y2="20.88" stroke="white" stroke-width="0.576"  y1="19.08" stroke-linecap="round" x1="18" x2="16.2"/>
                <line y2="20.88" stroke="white" stroke-width="0.576"  y1="20.88" stroke-linecap="round" x1="12.6" x2="16.2"/>
                <line y2="19.08" stroke="white" stroke-width="0.576"  y1="20.88" stroke-linecap="round" x1="12.6" x2="10.8"/>
                <line y2="6.48" stroke="white" stroke-width="0.576"  y1="8.28" stroke-linecap="round" x1="10.8" x2="12.6"/>
                <line y2="6.48" stroke="white" stroke-width="0.576"  y1="6.48" stroke-linecap="round" x1="12.6" x2="16.2"/>
                <line y2="6.48" stroke="white" stroke-width="0.576"  y1="8.28" stroke-linecap="round" x1="18" x2="16.2"/>
                <line y2="8.28" stroke="white" stroke-width="0.576"  y1="19.08" stroke-linecap="round" x1="10.8" x2="10.8"/>
            </g>
        </g>
    </g>
    <g gorn="0.2"  id="copper1">
        <g gorn="0.2.0"  id="copper0">
            <circle stroke="#F7BD13" stroke-width="1.224" gorn="0.2.0.0" connectorname="SDA"  cy="56.88" id="connector1pad" cx="61.2" r="2.02932" fill="none"/>
            <circle stroke="#F7BD13" stroke-width="1.224" gorn="0.2.0.1" connectorname="GND"  cy="17.28" id="connector49pad" cx="136.8" r="2.02932" fill="none"/>
            <circle stroke="#F7BD13" stroke-width="1.224" gorn="0.2.0.2" connectorname="GPIO25"  cy="17.28" id="connector65pad" cx="79.2" r="2.02932" fill="none"/>
            <circle stroke="#F7BD13" stroke-width="1.224" gorn="0.2.0.3" connectorname="SCL"  cy="64.08" id="connector2pad" cx="61.2" r="2.02932" fill="none"/>
            <circle stroke="#F7BD13" stroke-width="1.224" gorn="0.2.0.4" connectorname="GPIO20"  cy="17.28" id="connector81pad" cx="21.6" r="2.02932" fill="none"/>
            <circle stroke="#F7BD13" stroke-width="1.224" gorn="0.2.0.5" connectorname="GPIO4"  cy="71.28" id="connector3pad" cx="61.2" r="2.02932" fill="none"/>
            <circle stroke="#F7BD13" stroke-width="1.224" gorn="0.2.0.6" connectorname="GND"  cy="17.28" id="connector57pad" cx="108" r="2.02932" fill="none"/>
            <circle stroke="#F7BD13" stroke-width="1.224" gorn="0.2.0.7" connectorname="GND"  cy="78.48" id="connector4pad" cx="61.2" r="2.02932" fill="none"/>
            <circle stroke="#F7BD13" stroke-width="1.224" gorn="0.2.0.8" connectorname="GND"  cy="17.28" id="connector73pad" cx="50.4" r="2.02932" fill="none"/>
            <circle stroke="#F7BD13" stroke-width="1.224" gorn="0.2.0.9" connectorname="GPIO17"  cy="85.68" id="connector5pad" cx="61.2" r="2.02932" fill="none"/>
            <circle stroke="#F7BD13" stroke-width="1.224" gorn="0.2.0.10" connectorname="+5V"  cy="17.28" id="connector45pad" cx="151.2" r="2.02932" fill="none"/>
            <circle stroke="#F7BD13" stroke-width="1.224" gorn="0.2.0.11" connectorname="GPIO27"  cy="92.88" id="connector6pad" cx="61.2" r="2.02932" fill="none"/>
            <circle stroke="#F7BD13" stroke-width="1.224" gorn="0.2.0.12" connectorname="RXD"  cy="17.28" id="connector53pad" cx="122.4" r="2.02932" fill="none"/>
            <circle stroke="#F7BD13" stroke-width="1.224" gorn="0.2.0.13" connectorname="GPIO22"  cy="100.08" id="connector7pad" cx="61.2" r="2.02932" fill="none"/>
            <circle stroke="#F7BD13" stroke-width="1.224" gorn="0.2.0.14" connectorname="GPIO24"  cy="17.28" id="connector61pad" cx="93.6" r="2.02932" fill="none"/>
            <circle stroke="#F7BD13" stroke-width="1.224" gorn="0.2.0.15" connectorname="+3.3V_2"  cy="107.28" id="connector8pad" cx="61.2" r="2.02932" fill="none"/>
            <circle stroke="#F7BD13" stroke-width="1.224" gorn="0.2.0.16" connectorname="CE1"  cy="17.28" id="connector69pad" cx="64.8" r="2.02932" fill="none"/>
            <circle stroke="#F7BD13" stroke-width="1.224" gorn="0.2.0.17" connectorname="MOSI"  cy="114.48" id="connector9pad" cx="61.2" r="2.02932" fill="none"/>
            <circle stroke="#F7BD13" stroke-width="1.224" gorn="0.2.0.18" connectorname="GND"  cy="17.28" id="connector77pad" cx="36" r="2.02932" fill="none"/>
            <circle stroke="#F7BD13" stroke-width="1.224" gorn="0.2.0.19" connectorname="MISO"  cy="121.68" id="connector10pad" cx="61.2" r="2.02932" fill="none"/>
            <circle stroke="#F7BD13" stroke-width="2.12599" gorn="0.2.0.20" connectorname="P$1"  cy="35.28" id="connector43pad" cx="7.2" r="4.6063" fill="none"/>
            <circle stroke="#F7BD13" stroke-width="1.224" gorn="0.2.0.21" connectorname="SCLK"  cy="128.88" id="connector11pad" cx="61.2" r="2.02932" fill="none"/>
            <circle stroke="#F7BD13" stroke-width="1.224" gorn="0.2.0.22" connectorname="+5V"  cy="17.28" id="connector47pad" cx="144" r="2.02932" fill="none"/>
            <circle stroke="#F7BD13" stroke-width="1.224" gorn="0.2.0.23" connectorname="GND"  cy="136.08" id="connector12pad" cx="61.2" r="2.02932" fill="none"/>
            <circle stroke="#F7BD13" stroke-width="1.224" gorn="0.2.0.24" connectorname="TXD"  cy="17.28" id="connector51pad" cx="129.6" r="2.02932" fill="none"/>
            <circle stroke="#F7BD13" stroke-width="1.224" gorn="0.2.0.25" connectorname="EEDAT"  cy="143.28" id="connector13pad" cx="61.2" r="2.02932" fill="none"/>
            <circle stroke="#F7BD13" stroke-width="1.224" gorn="0.2.0.26" connectorname="GPIO18"  cy="17.28" id="connector55pad" cx="115.2" r="2.02932" fill="none"/>
            <circle stroke="#F7BD13" stroke-width="1.224" gorn="0.2.0.27" connectorname="GPIO5"  cy="150.48" id="connector14pad" cx="61.2" r="2.02932" fill="none"/>
            <circle stroke="#F7BD13" stroke-width="1.224" gorn="0.2.0.28" connectorname="GPIO23"  cy="17.28" id="connector59pad" cx="100.8" r="2.02932" fill="none"/>
            <circle stroke="#F7BD13" stroke-width="1.224" gorn="0.2.0.29" connectorname="GPIO6"  cy="157.68" id="connector15pad" cx="61.2" r="2.02932" fill="none"/>
            <circle stroke="#F7BD13" stroke-width="1.224" gorn="0.2.0.30" connectorname="GND"  cy="17.28" id="connector63pad" cx="86.4" r="2.02932" fill="none"/>
            <circle stroke="#F7BD13" stroke-width="1.224" gorn="0.2.0.31" connectorname="GPIO13"  cy="164.88" id="connector16pad" cx="61.2" r="2.02932" fill="none"/>
            <circle stroke="#F7BD13" stroke-width="1.224" gorn="0.2.0.32" connectorname="CE0"  cy="17.28" id="connector67pad" cx="72" r="2.02932" fill="none"/>
            <circle stroke="#F7BD13" stroke-width="1.224" gorn="0.2.0.33" connectorname="GPIO19"  cy="172.08" id="connector17pad" cx="61.2" r="2.02932" fill="none"/>
            <circle stroke="#F7BD13" stroke-width="1.224" gorn="0.2.0.34" connectorname="EECLK"  cy="17.28" id="connector71pad" cx="57.6" r="2.02932" fill="none"/>
            <circle stroke="#F7BD13" stroke-width="1.224" gorn="0.2.0.35" connectorname="GPIO26"  cy="179.28" id="connector18pad" cx="61.2" r="2.02932" fill="none"/>
            <circle stroke="#F7BD13" stroke-width="1.224" gorn="0.2.0.36" connectorname="GPIO12"  cy="17.28" id="connector75pad" cx="43.2" r="2.02932" fill="none"/>
            <circle stroke="#F7BD13" stroke-width="1.224" gorn="0.2.0.37" connectorname="GND"  cy="186.48" id="connector19pad" cx="61.2" r="2.02932" fill="none"/>
            <circle stroke="#F7BD13" stroke-width="1.224" gorn="0.2.0.38" connectorname="GPIO16"  cy="17.28" id="connector79pad" cx="28.8" r="2.02932" fill="none"/>
            <circle stroke="#F7BD13" stroke-width="1.224" gorn="0.2.0.39" connectorname="+5V"  cy="49.68" id="connector20pad" cx="104.4" r="2.02932" fill="none"/>
            <rect y="47.6507" stroke="#F7BD13" stroke-width="1.224"  width="4.05865" height="4.05865" fill="none" x="102.37"/>
            <circle stroke="#F7BD13" stroke-width="1.224" gorn="0.2.0.41" connectorname="GPIO21"  cy="17.28" id="connector83pad" cx="14.4" r="2.02932" fill="none"/>
            <circle stroke="#F7BD13" stroke-width="1.224" gorn="0.2.0.42" connectorname="+5V"  cy="56.88" id="connector21pad" cx="104.4" r="2.02932" fill="none"/>
            <circle stroke="#F7BD13" stroke-width="1.224" gorn="0.2.0.43" connectorname="+3.3V"  cy="10.08" id="connector44pad" cx="151.2" r="2.02932" fill="none"/>
            <rect y="8.05068" stroke="#F7BD13" stroke-width="1.224"  width="4.05865" height="4.05865" fill="none" x="149.17"/>
            <circle stroke="#F7BD13" stroke-width="1.224" gorn="0.2.0.45" connectorname="GND"  cy="64.08" id="connector22pad" cx="104.4" r="2.02932" fill="none"/>
            <circle stroke="#F7BD13" stroke-width="1.224" gorn="0.2.0.46" connectorname="SDA"  cy="10.08" id="connector46pad" cx="144" r="2.02932" fill="none"/>
            <circle stroke="#F7BD13" stroke-width="1.224" gorn="0.2.0.47" connectorname="TXD"  cy="71.28" id="connector23pad" cx="104.4" r="2.02932" fill="none"/>
            <circle stroke="#F7BD13" stroke-width="1.224" gorn="0.2.0.48" connectorname="SCL"  cy="10.08" id="connector48pad" cx="136.8" r="2.02932" fill="none"/>
            <circle stroke="#F7BD13" stroke-width="1.224" gorn="0.2.0.49" connectorname="RXD"  cy="78.48" id="connector24pad" cx="104.4" r="2.02932" fill="none"/>
            <circle stroke="#F7BD13" stroke-width="1.224" gorn="0.2.0.50" connectorname="GPIO4"  cy="10.08" id="connector50pad" cx="129.6" r="2.02932" fill="none"/>
            <circle stroke="#F7BD13" stroke-width="1.224" gorn="0.2.0.51" connectorname="GPIO18"  cy="85.68" id="connector25pad" cx="104.4" r="2.02932" fill="none"/>
            <circle stroke="#F7BD13" stroke-width="1.224" gorn="0.2.0.52" connectorname="GND"  cy="10.08" id="connector52pad" cx="122.4" r="2.02932" fill="none"/>
            <circle stroke="#F7BD13" stroke-width="1.224" gorn="0.2.0.53" connectorname="GND"  cy="92.88" id="connector26pad" cx="104.4" r="2.02932" fill="none"/>
            <circle stroke="#F7BD13" stroke-width="1.224" gorn="0.2.0.54" connectorname="GPIO17"  cy="10.08" id="connector54pad" cx="115.2" r="2.02932" fill="none"/>
            <circle stroke="#F7BD13" stroke-width="1.224" gorn="0.2.0.55" connectorname="GPIO23"  cy="100.08" id="connector27pad" cx="104.4" r="2.02932" fill="none"/>
            <circle stroke="#F7BD13" stroke-width="1.224" gorn="0.2.0.56" connectorname="GPIO27"  cy="10.08" id="connector56pad" cx="108" r="2.02932" fill="none"/>
            <circle stroke="#F7BD13" stroke-width="1.224" gorn="0.2.0.57" connectorname="GPIO24"  cy="107.28" id="connector28pad" cx="104.4" r="2.02932" fill="none"/>
            <circle stroke="#F7BD13" stroke-width="1.224" gorn="0.2.0.58" connectorname="GPIO22"  cy="10.08" id="connector58pad" cx="100.8" r="2.02932" fill="none"/>
            <circle stroke="#F7BD13" stroke-width="1.224" gorn="0.2.0.59" connectorname="GND"  cy="114.48" id="connector29pad" cx="104.4" r="2.02932" fill="none"/>
            <circle stroke="#F7BD13" stroke-width="1.224" gorn="0.2.0.60" connectorname="+3.3V_2"  cy="10.08" id="connector60pad" cx="93.6" r="2.02932" fill="none"/>
            <circle stroke="#F7BD13" stroke-width="1.224" gorn="0.2.0.61" connectorname="GPIO25"  cy="121.68" id="connector30pad" cx="104.4" r="2.02932" fill="none"/>
            <circle stroke="#F7BD13" stroke-width="1.224" gorn="0.2.0.62" connectorname="MOSI"  cy="10.08" id="connector62pad" cx="86.4" r="2.02932" fill="none"/>
            <circle stroke="#F7BD13" stroke-width="1.224" gorn="0.2.0.63" connectorname="CE0"  cy="128.88" id="connector31pad" cx="104.4" r="2.02932" fill="none"/>
            <circle stroke="#F7BD13" stroke-width="1.224" gorn="0.2.0.64" connectorname="MISO"  cy="10.08" id="connector64pad" cx="79.2" r="2.02932" fill="none"/>
            <circle stroke="#F7BD13" stroke-width="1.224" gorn="0.2.0.65" connectorname="CE1"  cy="136.08" id="connector32pad" cx="104.4" r="2.02932" fill="none"/>
            <circle stroke="#F7BD13" stroke-width="1.224" gorn="0.2.0.66" connectorname="SCLK"  cy="10.08" id="connector66pad" cx="72" r="2.02932" fill="none"/>
            <circle stroke="#F7BD13" stroke-width="1.224" gorn="0.2.0.67" connectorname="EECLK"  cy="143.28" id="connector33pad" cx="104.4" r="2.02932" fill="none"/>
            <circle stroke="#F7BD13" stroke-width="1.224" gorn="0.2.0.68" connectorname="GND"  cy="10.08" id="connector68pad" cx="64.8" r="2.02932" fill="none"/>
            <circle stroke="#F7BD13" stroke-width="1.224" gorn="0.2.0.69" connectorname="GND"  cy="150.48" id="connector34pad" cx="104.4" r="2.02932" fill="none"/>
            <circle stroke="#F7BD13" stroke-width="1.224" gorn="0.2.0.70" connectorname="EEDAT"  cy="10.08" id="connector70pad" cx="57.6" r="2.02932" fill="none"/>
            <circle stroke="#F7BD13" stroke-width="1.224" gorn="0.2.0.71" connectorname="GPIO12"  cy="157.68" id="connector35pad" cx="104.4" r="2.02932" fill="none"/>
            <circle stroke="#F7BD13" stroke-width="1.224" gorn="0.2.0.72" connectorname="GPIO5"  cy="10.08" id="connector72pad" cx="50.4" r="2.02932" fill="none"/>
            <circle stroke="#F7BD13" stroke-width="1.224" gorn="0.2.0.73" connectorname="GND"  cy="164.88" id="connector36pad" cx="104.4" r="2.02932" fill="none"/>
            <circle stroke="#F7BD13" stroke-width="1.224" gorn="0.2.0.74" connectorname="GPIO6"  cy="10.08" id="connector74pad" cx="43.2" r="2.02932" fill="none"/>
            <circle stroke="#F7BD13" stroke-width="1.224" gorn="0.2.0.75" connectorname="GPIO16"  cy="172.08" id="connector37pad" cx="104.4" r="2.02932" fill="none"/>
            <circle stroke="#F7BD13" stroke-width="1.224" gorn="0.2.0.76" connectorname="GPIO13"  cy="10.08" id="connector76pad" cx="36" r="2.02932" fill="none"/>
            <circle stroke="#F7BD13" stroke-width="1.224" gorn="0.2.0.77" connectorname="GPIO20"  cy="179.28" id="connector38pad" cx="104.4" r="2.02932" fill="none"/>
            <circle stroke="#F7BD13" stroke-width="1.224" gorn="0.2.0.78" connectorname="GPIO19"  cy="10.08" id="connector78pad" cx="28.8" r="2.02932" fill="none"/>
            <circle stroke="#F7BD13" stroke-width="1.224" gorn="0.2.0.79" connectorname="GPIO21"  cy="186.48" id="connector39pad" cx="104.4" r="2.02932" fill="none"/>
            <circle stroke="#F7BD13" stroke-width="1.224" gorn="0.2.0.80" connectorname="GPIO26"  cy="10.08" id="connector80pad" cx="21.6" r="2.02932" fill="none"/>
            <circle stroke="#F7BD13" stroke-width="1.44" gorn="0.2.0.81" connectorname="P$1"  cy="197.28" id="connector40pad" cx="100.8" r="4.26331" fill="none"/>
            <circle stroke="#F7BD13" stroke-width="1.224" gorn="0.2.0.82" connectorname="GND"  cy="10.08" id="connector82pad" cx="14.4" r="2.02932" fill="none"/>
            <circle stroke="#F7BD13" stroke-width="2.12599" gorn="0.2.0.83" connectorname="P$1"  cy="35.28" id="connector41pad" cx="158.4" r="4.6063" fill="none"/>
            <circle stroke="#F7BD13" stroke-width="1.44" gorn="0.2.0.84" connectorname="P$1"  cy="197.28" id="connector42pad" cx="64.8" r="4.26331" fill="none"/>
            <circle stroke="#F7BD13" stroke-width="1.224" gorn="0.2.0.85" connectorname="+3.3V"  cy="49.68" id="connector0pad" cx="61.2" r="2.02932" fill="none"/>
            <rect y="47.6507" stroke="#F7BD13" stroke-width="1.224"  width="4.05865" height="4.05865" fill="none" x="59.1707"/>
        </g>
    </g>
</svg>
