<?xml version="1.0" standalone="no"?>
<!DOCTYPE svg PUBLIC "-//W3C//DTD SVG 20010904//EN"
 "http://www.w3.org/TR/2001/REC-SVG-20010904/DTD/svg10.dtd">
<svg version="1.0" xmlns="http://www.w3.org/2000/svg"
 width="167.000000pt" height="184.000000pt" viewBox="0 0 167.000000 184.000000"
 preserveAspectRatio="xMidYMid meet">

<g transform="translate(0.000000,184.000000) scale(0.100000,-0.100000)"
fill="#000000" stroke="none">
<path d="M0 920 l0 -920 835 0 835 0 0 920 0 920 -835 0 -835 0 0 -920z m1325
860 c-3 -5 -13 -10 -21 -10 -8 0 -14 -7 -14 -15 0 -8 6 -15 14 -15 8 0 18 -4
21 -10 4 -6 -13 -10 -44 -10 -28 0 -51 5 -51 10 0 6 9 10 20 10 11 0 20 7 20
15 0 8 -9 15 -20 15 -11 0 -20 5 -20 10 0 6 23 10 51 10 31 0 48 -4 44 -10z
m-952 -7 c-38 -4 -43 -7 -43 -29 0 -13 -4 -24 -10 -24 -5 0 -10 14 -10 30 0
30 0 30 53 28 50 -1 50 -2 10 -5z m-101 -60 c22 -20 23 -70 1 -95 -20 -22 -76
-24 -97 -2 -21 20 -21 78 0 98 20 21 73 20 96 -1z m1208 -3 c24 -24 26 -57 4
-88 -21 -31 -87 -31 -108 0 -34 48 -4 108 54 108 17 0 39 -9 50 -20z m-1070 2
c0 -4 -15 -14 -32 -21 l-33 -13 35 -16 c22 -10 29 -17 20 -19 -19 -4 -90 24
-90 36 0 8 65 38 88 40 6 1 12 -3 12 -7z m906 -17 c-11 -8 -26 -15 -33 -15
-25 0 -13 -18 20 -30 22 -9 27 -14 15 -17 -23 -6 -91 24 -86 39 4 12 61 36 88
37 11 0 10 -3 -4 -14z m-918 -85 c12 -19 10 -20 -38 -20 -27 0 -50 5 -50 10 0
6 14 10 30 10 17 0 30 5 30 10 0 17 14 11 28 -10z m922 -21 c0 -5 -20 -9 -45
-9 -25 0 -45 5 -45 10 0 6 14 10 30 10 17 0 30 5 30 11 0 8 5 8 15 -1 8 -7 15
-16 15 -21z m5 -109 c-3 -5 -13 -10 -21 -10 -8 0 -14 -7 -14 -15 0 -8 6 -15
14 -15 8 0 18 -4 21 -10 4 -6 -13 -10 -44 -10 -28 0 -51 5 -51 10 0 6 9 10 20
10 11 0 20 7 20 15 0 8 -9 15 -20 15 -11 0 -20 5 -20 10 0 6 23 10 51 10 31 0
48 -4 44 -10z m-915 -20 c0 -5 -18 -10 -40 -10 -34 0 -40 -3 -40 -21 0 -11 -4
-17 -10 -14 -5 3 -10 17 -10 31 0 22 4 24 50 24 28 0 50 -4 50 -10z m-138 -47
c22 -20 24 -76 2 -97 -8 -9 -31 -16 -49 -16 -18 0 -41 7 -49 16 -21 20 -20 73
1 96 20 22 70 23 95 1z m1208 -3 c24 -24 26 -57 4 -88 -21 -31 -87 -31 -108 0
-34 48 -4 108 54 108 17 0 39 -9 50 -20z m-1070 1 c0 -5 -15 -14 -32 -21 l-33
-11 33 -14 c17 -8 32 -19 32 -24 0 -13 -93 22 -97 36 -2 6 13 18 34 26 44 18
63 21 63 8z m906 -16 c-11 -8 -26 -15 -33 -15 -25 0 -13 -18 20 -30 22 -9 27
-14 15 -17 -23 -6 -91 24 -86 39 4 12 61 36 88 37 11 0 10 -3 -4 -14z m-966
-90 c30 -32 44 -32 36 0 -5 19 -3 23 9 19 19 -8 19 -38 0 -54 -13 -11 -20 -9
-40 10 l-25 23 0 -22 c0 -12 -4 -19 -10 -16 -12 7 -14 65 -2 65 5 0 19 -11 32
-25z m920 -10 c27 -28 40 -32 40 -10 0 8 -5 15 -11 15 -5 0 -7 5 -4 10 5 8 11
7 21 -1 18 -15 18 -33 -1 -49 -12 -10 -19 -9 -38 3 -21 14 -24 13 -35 -1 -9
-14 -11 -10 -11 21 -1 43 7 46 39 12z m55 -155 c-3 -5 -13 -10 -21 -10 -8 0
-14 -7 -14 -15 0 -8 6 -15 14 -15 8 0 18 -4 21 -10 4 -6 -13 -10 -44 -10 -28
0 -51 5 -51 10 0 6 9 10 20 10 11 0 20 7 20 15 0 8 -9 15 -20 15 -11 0 -20 5
-20 10 0 6 23 10 51 10 31 0 48 -4 44 -10z m-1053 -27 c22 -20 23 -70 1 -95
-20 -22 -76 -24 -97 -2 -21 20 -20 73 1 96 20 22 70 23 95 1z m1208 -3 c24
-24 26 -57 4 -88 -11 -16 -25 -22 -54 -22 -29 0 -43 6 -54 22 -34 48 -4 108
54 108 17 0 39 -9 50 -20z m-1070 0 c0 -5 -18 -10 -40 -10 -34 0 -40 -3 -40
-21 0 -11 -4 -17 -10 -14 -5 3 -10 17 -10 31 0 22 4 24 50 24 28 0 50 -4 50
-10z m0 -49 c0 -5 -15 -14 -32 -21 l-33 -11 33 -14 c17 -8 32 -19 32 -24 0
-13 -93 22 -97 36 -2 6 13 18 34 26 44 18 63 21 63 8z m906 -6 c-11 -8 -26
-15 -33 -15 -25 0 -13 -18 20 -30 22 -9 27 -14 15 -17 -23 -6 -91 24 -86 39 4
12 61 36 88 37 11 0 10 -3 -4 -14z m-925 -145 c21 -12 27 -64 8 -75 -16 -10
-24 4 -11 17 7 7 12 15 12 20 0 13 -38 28 -54 22 -17 -7 -22 -44 -6 -44 6 0
10 5 10 10 0 6 5 10 10 10 6 0 10 -9 10 -20 0 -15 -7 -20 -25 -20 -36 0 -46
47 -15 72 26 21 34 22 61 8z m917 -16 c12 -8 22 -23 22 -33 0 -22 -27 -47 -38
-36 -4 4 -1 10 6 12 17 7 15 40 -4 47 -30 11 -69 -23 -44 -39 6 -3 10 -1 10 4
0 6 5 11 10 11 6 0 10 -9 10 -21 0 -15 -5 -20 -22 -17 -30 4 -38 56 -12 75 23
17 35 16 62 -3z m-1036 -81 c22 -20 24 -76 2 -97 -8 -9 -31 -16 -49 -16 -18 0
-41 7 -49 16 -21 20 -20 73 1 96 20 22 70 23 95 1z m1208 -3 c24 -24 26 -57 4
-88 -11 -16 -25 -22 -54 -22 -29 0 -43 6 -54 22 -34 48 -4 108 54 108 17 0 39
-9 50 -20z m-1070 -10 c0 -5 -12 -16 -27 -24 l-28 -15 28 -1 c15 0 27 -4 27
-10 0 -5 -24 -10 -52 -10 l-53 1 30 24 c28 23 28 25 8 25 -12 0 -25 5 -28 10
-4 6 13 10 44 10 28 0 51 -4 51 -10z m895 -25 c-28 -23 -28 -25 -8 -25 12 0
25 -4 28 -10 4 -6 -13 -10 -44 -10 -57 0 -65 12 -23 34 l27 15 -27 1 c-16 0
-28 5 -28 10 0 6 24 10 53 10 l52 -1 -30 -24z m-895 -85 c0 -23 -6 -33 -25
-42 -33 -15 -75 12 -75 47 0 23 3 25 50 25 49 0 50 -1 50 -30z m920 -5 c0 -35
-42 -62 -75 -47 -19 9 -25 19 -25 42 0 29 1 30 50 30 47 0 50 -2 50 -25z m-5
-105 c-3 -5 -13 -10 -21 -10 -8 0 -14 -7 -14 -15 0 -8 6 -15 14 -15 8 0 18 -4
21 -10 4 -6 -13 -10 -44 -10 -28 0 -51 5 -51 10 0 6 9 10 20 10 11 0 20 7 20
15 0 8 -9 15 -20 15 -11 0 -20 5 -20 10 0 6 23 10 51 10 31 0 48 -4 44 -10z
m-910 -20 c-3 -5 -22 -10 -41 -10 -27 0 -34 -4 -34 -20 0 -11 -4 -20 -10 -20
-5 0 -10 14 -10 30 0 29 1 30 51 30 31 0 48 -4 44 -10z m-147 -46 c22 -15 30
-66 14 -91 -14 -22 -61 -34 -85 -22 -29 16 -37 28 -37 63 0 58 58 85 108 50z
m1212 -4 c42 -42 11 -113 -50 -113 -61 0 -92 71 -50 113 11 11 33 20 50 20 17
0 39 -9 50 -20z m-1060 2 c0 -4 -15 -13 -32 -20 l-33 -13 35 -16 c25 -11 30
-17 18 -20 -23 -6 -91 24 -86 39 7 19 98 48 98 30z m896 -27 c-11 -8 -26 -15
-33 -15 -25 0 -13 -18 20 -30 18 -7 26 -14 19 -17 -9 -4 -10 -9 -2 -18 6 -7 8
-19 5 -28 -8 -18 -65 -29 -82 -15 -18 14 -16 45 2 52 12 4 14 0 9 -19 -6 -26
10 -36 19 -12 4 9 8 9 15 -2 6 -8 12 -9 16 -3 11 19 -6 43 -41 57 -42 18 -39
34 8 51 49 18 69 17 45 -1z m-972 -80 c-7 -28 10 -35 20 -8 6 14 8 14 22 -3
14 -18 15 -17 9 11 -6 28 -5 29 11 13 22 -22 11 -48 -21 -49 -14 -1 -30 -2
-36 -3 -21 -2 -34 31 -20 48 19 22 22 20 15 -9z m976 -125 c0 -5 -7 -10 -15
-10 -8 0 -15 -7 -15 -15 0 -8 7 -15 15 -15 8 0 15 -4 15 -10 0 -5 -20 -10 -45
-10 -25 0 -45 5 -45 10 0 6 9 10 20 10 11 0 20 7 20 15 0 8 -9 15 -20 15 -11
0 -20 5 -20 10 0 6 20 10 45 10 25 0 45 -4 45 -10z m-910 -20 c0 -5 -18 -10
-40 -10 -34 0 -40 -3 -40 -21 0 -11 -4 -17 -10 -14 -5 3 -10 17 -10 31 0 22 4
24 50 24 28 0 50 -4 50 -10z m-142 -46 c22 -15 30 -66 14 -90 -24 -37 -93 -39
-112 -4 -27 51 2 110 55 110 11 0 31 -7 43 -16z m1212 -4 c42 -42 11 -113 -50
-113 -61 0 -92 71 -50 113 11 11 33 20 50 20 17 0 39 -9 50 -20z m-1070 1 c0
-5 -15 -14 -32 -21 l-33 -11 33 -14 c17 -8 32 -19 32 -24 0 -13 -93 22 -97 36
-2 6 13 18 34 26 44 18 63 21 63 8z m910 -20 c0 -5 -15 -15 -32 -21 l-33 -13
33 -10 c17 -5 32 -15 32 -22 0 -9 -11 -8 -45 4 -53 19 -57 36 -12 55 38 17 57
19 57 7z m-940 -83 c39 -28 38 -35 -5 -40 -37 -4 -71 9 -47 19 6 2 12 13 12
24 0 24 4 24 40 -3z m911 -9 c38 -27 37 -36 -6 -41 -37 -4 -71 9 -47 19 6 2
12 13 12 24 0 24 5 24 41 -2z"/>
<path d="M330 686 c0 -16 34 -31 50 -21 22 14 10 35 -20 35 -19 0 -30 -5 -30
-14z"/>
<path d="M1250 676 c0 -17 24 -28 45 -20 27 11 17 34 -15 34 -19 0 -30 -5 -30
-14z"/>
</g>
</svg>
