<?xml version='1.0' encoding='UTF-8' standalone='no'?>
<!-- Generator: Adobe Illustrator 14.0.0, SVG Export Plug-In . SVG Version: 6.00 Build 43363)  -->
<svg xmlns="http://www.w3.org/2000/svg" xmlns:xml="http://www.w3.org/XML/1998/namespace"  gorn="0" version="1.2" id="svg2" width="34.931343" xml:space="preserve" height="23.781845" viewBox="0 0 34.931342 23.781845" x="0px" y="0px">
    <desc >
        <referenceFile >Traco_TSR1_SIP_3_100mil_breadboard.svg</referenceFile>
    </desc>
    <metadata  id="metadata2942">
        <rdf:RDF xmlns:rdf="http://www.w3.org/1999/02/22-rdf-syntax-ns#">
            <cc:Work xmlns:rdf="http://www.w3.org/1999/02/22-rdf-syntax-ns#" xmlns:cc="http://creativecommons.org/ns#" rdf:about="">
                <dc:format xmlns:dc="http://purl.org/dc/elements/1.1/">image/svg+xml</dc:format>
                <dc:type xmlns:rdf="http://www.w3.org/1999/02/22-rdf-syntax-ns#" xmlns:dc="http://purl.org/dc/elements/1.1/" rdf:resource="http://purl.org/dc/dcmitype/StillImage"/>
                <dc:title xmlns:dc="http://purl.org/dc/elements/1.1/"/>
            </cc:Work>
        </rdf:RDF>
    </metadata>
    <defs  id="defs2940"/>
    <g  gorn="0.3" id="g3420">
        <rect  gorn="0.3.0" id="connector0pin" style="fill:#8c8c8c" width="2.1600001" height="2.1600001" x="7.799274" y="13.882883"/>
        <rect  gorn="0.3.1" id="connector1pin" style="fill:#8c8c8c" width="2.1600001" height="2.1600001" x="16.689722" y="13.882883"/>
        <rect  gorn="0.3.2" id="connector2pin" style="fill:#8c8c8c" width="2.1600001" height="2.1600001" x="25.441011" y="13.882883"/>
        <path  stroke-opacity="1" stroke-width="0.22184634" gorn="0.3.3" id="path7086" fill-opacity="1" style="fill-rule:evenodd;stroke-linecap:butt;stroke-linejoin:miter;stroke-miterlimit:4;stroke-dasharray:none;" stroke="#191819" fill="#161516" d="m 33.8303,0.19494 1.00872,7.95011 -1.1416,15.54113 -1.49342,-8.4167 z"/>
        <g  transform="matrix(1,0,0.15857493,0.98734695,0,0)">
            <g >
                <rect  stroke-width="0.68752521" gorn="0.3.4.0.0" id="rect6274" fill-opacity="1" style="stroke-miterlimit:4;stroke-dasharray:2.06257564, 0.68752521;stroke-dashoffset:0" fill="#71002f" width="32.484627" height="7.7519102" x="-2.5690777" y="16.321589"/>
            </g>
        </g>
        <path  stroke-width="0.68752521" gorn="0.3.5" id="rect6270" fill-opacity="1" style="stroke-miterlimit:4;stroke-dasharray:2.06257564, 0.68752521;stroke-dashoffset:0" fill="#393a3a" d="m 2.74848,-0.01295 -2.71223,16.17981 32.45692,0 1.44885,-16.17981 -31.19354,0 z"/>
        <g  gorn="0.3.6" id="g3399">
            <g  transform="matrix(2.0182084,0,-0.21001451,0.49548896,0,0)">
                <g >
                    <g  stroke-opacity="0.99436095" stroke-width="0" gorn="0.3.6.0.0.0" id="text7118" fill-opacity="1" style="font-style:normal;font-weight:normal;line-height:125%;font-family:Droid Sans;letter-spacing:0px;word-spacing:0px;stroke-linecap:butt;stroke-linejoin:miter;stroke-miterlimit:4;stroke-dasharray:none;" stroke="#fefdfe" font-size="4.33664" fill="#fdfefe">
                        <path  stroke-width="0" gorn="0.3.6.0.0.0.0" id="path3379" style="stroke-miterlimit:4;stroke-dasharray:none" d="m 5.7281426,35.096548 2.6744004,0 0,0.359974 -1.1222741,0 0,2.801451 -0.4298522,0 0,-2.801451 -1.1222741,0 0,-0.359974 z"/>
                        <path  stroke-width="0" gorn="0.3.6.0.0.0.1" id="path3381" style="stroke-miterlimit:4;stroke-dasharray:none" d="m 9.5396396,36.250584 q -0.065642,-0.03812 -0.1439899,-0.05506 -0.07623,-0.01906 -0.1693999,-0.01906 -0.3303297,0 -0.5081996,0.215985 -0.1757523,0.213867 -0.1757523,0.616192 l 0,1.249324 -0.3917372,0 0,-2.371598 0.3917372,0 0,0.368444 q 0.1228149,-0.215985 0.3197422,-0.319742 0.1969274,-0.105875 0.4785546,-0.105875 0.040233,0 0.088935,0.0064 0.048702,0.0042 0.1079924,0.01482 l 0.00212,0.400207 z"/>
                        <path  stroke-width="0" gorn="0.3.6.0.0.0.2" id="path3383" style="stroke-miterlimit:4;stroke-dasharray:none" d="m 11.030359,37.065821 q -0.472203,0 -0.654307,0.107993 -0.182105,0.107992 -0.182105,0.368444 0,0.207515 0.13552,0.33033 0.137637,0.120697 0.372679,0.120697 0.323978,0 0.518787,-0.228689 0.196928,-0.230808 0.196928,-0.611957 l 0,-0.08682 -0.387502,0 z m 0.777121,-0.16093 0,1.353082 -0.389619,0 0,-0.359975 q -0.133403,0.215985 -0.332447,0.319742 -0.199045,0.10164 -0.487025,0.10164 -0.36421,0 -0.580195,-0.20328 -0.213867,-0.205397 -0.213867,-0.548432 0,-0.400207 0.266805,-0.603487 0.268922,-0.20328 0.800414,-0.20328 l 0.546315,0 0,-0.03811 q 0,-0.268922 -0.17787,-0.415029 -0.175752,-0.148225 -0.495495,-0.148225 -0.20328,0 -0.395972,0.0487 -0.192692,0.0487 -0.3705621,0.146108 l 0,-0.359975 q 0.2138671,-0.08258 0.4150301,-0.122815 0.201162,-0.04235 0.391737,-0.04235 0.514552,0 0.768652,0.266805 0.254099,0.266805 0.254099,0.808884 z"/>
                        <path  stroke-width="0" gorn="0.3.6.0.0.0.3" id="path3385" style="stroke-miterlimit:4;stroke-dasharray:none" d="m 14.318833,35.977427 0,0.36421 q -0.165164,-0.09105 -0.332447,-0.13552 -0.165165,-0.04659 -0.334565,-0.04659 -0.379032,0 -0.588664,0.241395 -0.209632,0.239277 -0.209632,0.673364 0,0.434087 0.209632,0.675482 0.209632,0.239277 0.588664,0.239277 0.1694,0 0.334565,-0.04447 0.167283,-0.04659 0.332447,-0.137637 l 0,0.359974 q -0.163047,0.07623 -0.338799,0.114345 -0.173635,0.03812 -0.370563,0.03812 -0.535727,0 -0.851234,-0.336682 -0.315507,-0.336682 -0.315507,-0.908407 0,-0.580194 0.317625,-0.912642 0.319742,-0.332447 0.874526,-0.332447 0.179988,0 0.351505,0.03811 0.171518,0.036 0.332447,0.11011 z"/>
                        <path  stroke-width="0" gorn="0.3.6.0.0.0.4" id="path3387" style="stroke-miterlimit:4;stroke-dasharray:none" d="m 15.919662,36.159532 q -0.31339,0 -0.495495,0.24563 -0.182105,0.243512 -0.182105,0.669129 0,0.425617 0.179988,0.671247 0.182105,0.243512 0.497612,0.243512 0.311272,0 0.493377,-0.245629 0.182105,-0.24563 0.182105,-0.66913 0,-0.421382 -0.182105,-0.667012 -0.182105,-0.247747 -0.493377,-0.247747 z m 0,-0.33033 q 0.5082,0 0.798297,0.33033 0.290097,0.33033 0.290097,0.914759 0,0.582312 -0.290097,0.914759 -0.290097,0.33033 -0.798297,0.33033 -0.510317,0 -0.800414,-0.33033 -0.28798,-0.332447 -0.28798,-0.914759 0,-0.584429 0.28798,-0.914759 0.290097,-0.33033 0.800414,-0.33033 z"/>
                        <path  stroke-width="0" gorn="0.3.6.0.0.0.5" id="path3389" style="stroke-miterlimit:4;stroke-dasharray:none" d="m 6.5941994,40.868848 0,1.187917 0.5378446,0 q 0.2985672,0 0.4616146,-0.154578 0.1630474,-0.154577 0.1630474,-0.440439 0,-0.283745 -0.1630474,-0.438322 Q 7.4306112,40.868848 7.132044,40.868848 l -0.5378446,0 z m -0.4277347,-0.351505 0.9655793,0 q 0.5314921,0 0.8025318,0.241395 0.2731573,0.239278 0.2731573,0.70301 0,0.467967 -0.2731573,0.707244 -0.2710397,0.239277 -0.8025318,0.239277 l -0.5378446,0 0,1.270499 -0.4277347,0 0,-3.161425 z"/>
                        <path  stroke-width="0" gorn="0.3.6.0.0.0.6" id="path3391" style="stroke-miterlimit:4;stroke-dasharray:none" d="m 9.533287,41.580328 q -0.3133898,0 -0.4954946,0.245629 -0.1821049,0.243513 -0.1821049,0.66913 0,0.425617 0.1799874,0.671247 0.1821048,0.243512 0.4976121,0.243512 0.3112722,0 0.493377,-0.24563 0.182105,-0.245629 0.182105,-0.669129 0,-0.421382 -0.182105,-0.667012 -0.1821048,-0.247747 -0.493377,-0.247747 z m 0,-0.33033 q 0.5082,0 0.798297,0.33033 0.290097,0.330329 0.290097,0.914759 0,0.582312 -0.290097,0.914759 -0.290097,0.33033 -0.798297,0.33033 -0.5103171,0 -0.8004144,-0.33033 -0.2879798,-0.332447 -0.2879798,-0.914759 0,-0.58443 0.2879798,-0.914759 0.2900973,-0.33033 0.8004144,-0.33033 z"/>
                        <path  stroke-width="0" gorn="0.3.6.0.0.0.7" id="path3393" style="stroke-miterlimit:4;stroke-dasharray:none" d="m 11.038828,41.30717 0.38962,0 0.487024,1.850694 0.484908,-1.850694 0.459497,0 0.487024,1.850694 0.484907,-1.850694 0.38962,0 -0.620427,2.371598 -0.459497,0 -0.510317,-1.943863 -0.512435,1.943863 -0.459497,0 -0.620427,-2.371598 z"/>
                        <path  stroke-width="0" gorn="0.3.6.0.0.0.8" id="path3395" style="stroke-miterlimit:4;stroke-dasharray:none" d="m 16.842891,42.395564 0,0.190575 -1.791404,0 q 0.02541,0.402325 0.241395,0.614075 0.218102,0.209632 0.605604,0.209632 0.224455,0 0.434088,-0.05506 0.211749,-0.05505 0.419264,-0.165165 l 0,0.368445 q -0.209632,0.08893 -0.429852,0.13552 -0.22022,0.04659 -0.446792,0.04659 -0.56749,0 -0.899937,-0.33033 -0.33033,-0.33033 -0.33033,-0.893584 0,-0.582312 0.31339,-0.923229 0.315507,-0.343035 0.849117,-0.343035 0.478555,0 0.755947,0.309155 0.27951,0.307037 0.27951,0.836411 z m -0.38962,-0.114344 q -0.0042,-0.319743 -0.179987,-0.510318 -0.173635,-0.190574 -0.461615,-0.190574 -0.326095,0 -0.523022,0.184222 -0.19481,0.184222 -0.224455,0.518787 l 1.389079,-0.0021 z"/>
                        <path  stroke-width="0" gorn="0.3.6.0.0.0.9" id="path3397" style="stroke-miterlimit:4;stroke-dasharray:none" d="m 18.856632,41.67138 q -0.06564,-0.03811 -0.14399,-0.05505 -0.07623,-0.01906 -0.1694,-0.01906 -0.33033,0 -0.5082,0.215984 -0.175752,0.213868 -0.175752,0.616192 l 0,1.249324 -0.391737,0 0,-2.371598 0.391737,0 0,0.368445 q 0.122815,-0.215985 0.319742,-0.319742 0.196928,-0.105875 0.478555,-0.105875 0.04023,0 0.08893,0.0064 0.0487,0.0042 0.107992,0.01482 l 0.0021,0.400207 z"/>
                    </g>
                </g>
            </g>
        </g>
        <g  gorn="0.3.7" id="g3412">
            <g  transform="matrix(1,0,-0.30075121,1,0,0)">
                <g >
                    <g  stroke-opacity="1" stroke-width="1" gorn="0.3.7.0.0.0" id="text7134" fill-opacity="1" style="font-style:normal;font-variant:normal;font-weight:normal;font-stretch:normal;line-height:125%;font-family:DroidSans;-inkscape-font-specification:'DroidSans, Normal';text-align:start;letter-spacing:0px;word-spacing:0px;writing-mode:lr-tb;text-anchor:start;stroke-linecap:butt;stroke-linejoin:miter;" stroke="none" font-size="10" fill="#fdfaf9">
                        <path  gorn="0.3.7.0.0.0.0" id="path3368" style="" d="m 11.377878,10.975964 -0.913086,0 0,-6.337891 -2.0410154,0 0,-0.8007813 4.9902344,0 0,0.8007813 -2.036133,0 0,6.337891 z"/>
                        <path  gorn="0.3.7.0.0.0.1" id="path3370" style="" d="m 18.155222,9.0667839 q 0,0.4736328 -0.170898,0.8496094 -0.166016,0.3710937 -0.478516,0.6298827 -0.3125,0.258789 -0.761719,0.395508 -0.449219,0.131836 -1.010742,0.131836 -0.541992,0 -1.015625,-0.08789 -0.46875,-0.08301 -0.786133,-0.249023 l 0,-0.8691408 q 0.166016,0.078125 0.375977,0.1562498 0.214843,0.07324 0.449218,0.131836 0.234375,0.05859 0.483399,0.09766 0.249023,0.03418 0.493164,0.03418 0.78125,0 1.152344,-0.2929687 0.375976,-0.2929688 0.375976,-0.8398438 0,-0.2636718 -0.07324,-0.4589843 Q 17.120066,8.5003777 16.939402,8.3392448 16.76362,8.1732292 16.465769,8.021862 16.167917,7.865612 15.713816,7.684948 15.279245,7.5140495 14.95698,7.3138542 14.639597,7.1087761 14.429636,6.8548698 14.224558,6.6009636 14.122019,6.278698 q -0.09766,-0.3222657 -0.09766,-0.7324219 0,-0.4296875 0.15625,-0.7666016 0.15625,-0.336914 0.439453,-0.5664062 0.283203,-0.234375 0.673828,-0.3564453 0.395508,-0.1220703 0.86914,-0.1220703 0.581055,0 1.044922,0.1123046 0.463868,0.1074219 0.825196,0.2783204 L 17.706003,4.8870964 Q 17.38862,4.7454948 16.983347,4.6429558 16.582956,4.5355339 16.153269,4.5355339 q -0.595703,0 -0.922852,0.2783203 -0.327148,0.2734375 -0.327148,0.7421875 0,0.2783203 0.07324,0.4833985 0.07324,0.2001953 0.244141,0.3662109 0.170898,0.1611328 0.449218,0.3076172 0.283204,0.1416015 0.69336,0.3027344 0.444336,0.1757812 0.776367,0.3613281 0.336914,0.1855469 0.561523,0.4199219 0.22461,0.234375 0.336914,0.5419921 0.117188,0.3076172 0.117188,0.7275391 z"/>
                        <path  gorn="0.3.7.0.0.0.2" id="path3372" style="" d="m 20.498972,8.0267448 0,2.9492192 -0.908203,0 0,-7.1386723 1.738281,0 q 1.298828,0 1.918945,0.5029297 0.620118,0.5029297 0.620118,1.5234375 0,0.4248047 -0.122071,0.7421875 -0.117187,0.3173828 -0.317383,0.546875 -0.195312,0.2246094 -0.449218,0.3759766 -0.253907,0.1513672 -0.522461,0.2490234 l 1.943359,3.1982426 -1.069336,0 -1.713867,-2.9492192 -1.118164,0 z m 0,-0.7714843 0.800781,0 q 0.439453,0 0.747071,-0.083008 0.307617,-0.087891 0.502929,-0.2539063 0.200196,-0.1708984 0.288086,-0.4199219 0.09277,-0.2539062 0.09277,-0.5908203 0,-0.3515625 -0.102539,-0.5957031 -0.09766,-0.2441406 -0.302735,-0.4003906 -0.200195,-0.15625 -0.512695,-0.2246094 -0.307617,-0.073242 -0.732422,-0.073242 l -0.78125,0 0,2.6416016 z"/>
                        <path  gorn="0.3.7.0.0.0.3" id="path3374" style="" d="m 24.917917,8.7054558 0,-0.8203125 2.421875,0 0,0.8203125 -2.421875,0 z"/>
                        <path  gorn="0.3.7.0.0.0.4" id="path3376" style="" d="m 31.211863,10.975964 -0.859375,0 0,-4.4580082 q 0,-0.209961 0,-0.4492188 0.0049,-0.2392578 0.0098,-0.4736328 0.0098,-0.2392578 0.01465,-0.4541015 0.0098,-0.2197266 0.01465,-0.3857422 -0.08301,0.087891 -0.146484,0.1513672 -0.06348,0.063477 -0.131836,0.1220703 -0.06348,0.058594 -0.136719,0.1269531 -0.07324,0.063477 -0.175781,0.1513672 l -0.722656,0.5908203 -0.46875,-0.6005859 1.870117,-1.459961 0.732422,0 0,7.1386723 z"/>
                    </g>
                </g>
            </g>
        </g>
    </g>
</svg>
