<?xml version='1.0' encoding='UTF-8' standalone='no'?>
<!-- Created with Inkscape (http://www.inkscape.org/) -->
<svg xmlns="http://www.w3.org/2000/svg" id="svg4364"  gorn="0" version="1.1" width="72" height="54">
    <desc >
        <referenceFile >2.1mm_DC_Barrel_Jack__0d81611f192da410c3__pcb__a4d600445c260db3506f8bea8d6e95f9.svg</referenceFile>
    </desc>
    <defs id="defs4366" />
    <metadata id="metadata4369" >
        <rdf:RDF xmlns:rdf="http://www.w3.org/1999/02/22-rdf-syntax-ns#">
            <cc:Work rdf:about="" xmlns:rdf="http://www.w3.org/1999/02/22-rdf-syntax-ns#" xmlns:cc="http://creativecommons.org/ns#">
                <dc:format xmlns:dc="http://purl.org/dc/elements/1.1/">image/svg+xml</dc:format>
                <dc:type rdf:resource="http://purl.org/dc/dcmitype/StillImage" xmlns:dc="http://purl.org/dc/elements/1.1/" xmlns:rdf="http://www.w3.org/1999/02/22-rdf-syntax-ns#"/>
                <dc:title xmlns:dc="http://purl.org/dc/elements/1.1/"/>
            </cc:Work>
        </rdf:RDF>
    </metadata>
    <g  transform="translate(0,-998.362)">
        <g >
            <g style="display:inline" id="layer1"  gorn="0.3.0.0"/>
        </g>
    </g>
    <g id="pcb"  gorn="0.4">
        <g id="copper0"  gorn="0.4.0">
            <path style="fill:none;stroke:#f6ca34;stroke-width:1.79999995;stroke-linecap:round;stroke-linejoin:round;stroke-miterlimit:4;stroke-opacity:1;stroke-dasharray:none;stroke-dashoffset:0;display:inline" d="m 65.25,27 a 2.25,2.25 0 0 1 -4.5,0 2.25,2.25 0 1 1 4.5,0 z" id="connector1pin"  gorn="0.4.0.0"/>
            <path style="fill:none;stroke:#f6ca34;stroke-width:1.79999995;stroke-linecap:round;stroke-linejoin:round;stroke-miterlimit:4;stroke-opacity:1;stroke-dasharray:none;stroke-dashoffset:0;display:inline" d="m 47.25,27 a 2.25,2.25 0 0 1 -4.5,0 2.25,2.25 0 1 1 4.5,0 z" id="connector2pin"  gorn="0.4.0.1"/>
            <path style="fill:none;stroke:#f6ca34;stroke-width:1.79999995;stroke-linecap:round;stroke-linejoin:round;stroke-miterlimit:4;stroke-opacity:1;stroke-dasharray:none;stroke-dashoffset:0;display:inline" d="m 56.25,45 a 2.25,2.25 0 0 1 -4.5,0 2.25,2.25 0 1 1 4.5,0 z" id="connector3pin"  gorn="0.4.0.2"/>
        </g>
        <g id="copper1"  gorn="0.4.1">
            <path style="fill:none;stroke:#f6ca34;stroke-width:1.79999995;stroke-linecap:round;stroke-linejoin:round;stroke-miterlimit:4;stroke-opacity:1;stroke-dasharray:none;stroke-dashoffset:0;display:inline" d="m 65.25,27 a 2.25,2.25 0 0 1 -4.5,0 2.25,2.25 0 1 1 4.5,0 z" id="connector1pin"  gorn="0.4.1.0"/>
            <path style="fill:none;stroke:#f6ca34;stroke-width:1.79999995;stroke-linecap:round;stroke-linejoin:round;stroke-miterlimit:4;stroke-opacity:1;stroke-dasharray:none;stroke-dashoffset:0;display:inline" d="m 47.25,27 a 2.25,2.25 0 0 1 -4.5,0 2.25,2.25 0 1 1 4.5,0 z" id="connector2pin"  gorn="0.4.1.1"/>
            <path style="fill:none;stroke:#f6ca34;stroke-width:1.79999995;stroke-linecap:round;stroke-linejoin:round;stroke-miterlimit:4;stroke-opacity:1;stroke-dasharray:none;stroke-dashoffset:0;display:inline" d="m 56.25,45 a 2.25,2.25 0 0 1 -4.5,0 2.25,2.25 0 1 1 4.5,0 z" id="connector3pin"  gorn="0.4.1.2"/>
        </g>
        <g id="silkscreen"  gorn="0.4.2">
            <rect style="fill:none;stroke:#ffffff;stroke-width:0.89999998;stroke-linecap:butt;stroke-linejoin:round;stroke-miterlimit:4;stroke-opacity:1;stroke-dasharray:none;stroke-dashoffset:0.28800001" y="9" id="rect9719"  gorn="0.4.2.0" width="54" height="36" x="9"/>
        </g>
    </g>
</svg>
