<?xml version='1.0' encoding='UTF-8' standalone='no'?>
<svg
  xmlns:dc="http://purl.org/dc/elements/1.1/"
  xmlns:cc="http://creativecommons.org/ns#"
  xmlns:rdf="http://www.w3.org/1999/02/22-rdf-syntax-ns#"
  xmlns:svg="http://www.w3.org/2000/svg"
  xmlns="http://www.w3.org/2000/svg"
  viewBox="0 0 2400.0007 360.71298"
  version="1.2"
  height="9.1621065mm"
  x="0px"
  y="0px"
  id="_x30_"
  width="60.959999mm">
  <desc
    id="desc3">
    <referenceFile>RPiHeader40p_1_breadboard.svg</referenceFile>
  </desc>
  <metadata
    id="metadata1156">
    <rdf:RDF>
      <cc:Work
        rdf:about="">
        <dc:format>image/svg+xml</dc:format>
        <dc:type
          rdf:resource="http://purl.org/dc/dcmitype/StillImage"
        />
        <dc:title/>
      </cc:Work>
    </rdf:RDF>
  </metadata>
  <defs
    id="defs1154"
  />
  <g
    id="breadboard">
    <rect
      stroke-width="0"
      stroke="none"
      fill-opacity="1"
      fill="#217821"
      id="rect351"
      width="405.00012"
      height="240.00008"
      x="5.6843419e-14"
      y="61.962852"
    />
    <rect
      stroke-width="0"
      stroke="none"
      fill-opacity="1"
      fill="#217821"
      y="-5.6843419e-14"
      x="395.00012"
      height="360.71295"
      width="2005.0006"
      id="rect2671"
    />
    <polygon
      fill="#404040"
      transform="matrix(13.888917,0,0,13.888764,115.49955,58.937696)"
      id="polygon3153-8_21_"
      points="27.323,10.406 27.323,7.07 27.323,3.143 25.759,1.634 21.689,1.634 20.124,3.143 20.124,7.07 20.124,10.406 20.124,14.334 21.689,15.842 25.759,15.842 27.323,14.334 "
    />
    <polygon
      fill="#404040"
      transform="matrix(13.888917,0,0,13.888764,115.49955,58.937696)"
      id="polygon3159-0_21_"
      points="27.323,10.406 27.323,7.07 27.323,3.143 25.759,1.634 21.689,1.634 20.124,3.143 20.124,7.07 20.124,10.406 20.124,14.334 21.689,15.842 25.759,15.842 27.323,14.334 "
    />
    <rect
      stroke-width="13.88884068"
      fill="#8c8663"
      height="16.402632"
      x="436.79187"
      y="121.57596"
      id="rect3213-8_21_"
      width="16.4167"
    />
    <polygon
      fill="#b8af82"
      transform="matrix(13.888917,0,0,13.888764,115.49955,58.937696)"
      id="polygon3215-9_21_"
      points="22.575,3.954 22.575,6.25 23.133,5.69 23.133,4.514 "
    />
    <polygon
      fill="#80795b"
      transform="matrix(13.888917,0,0,13.888764,115.49955,58.937696)"
      id="polygon3217-7_21_"
      points="24.872,3.954 24.317,4.514 23.133,4.514 22.575,3.954 "
    />
    <polygon
      fill="#5e5b43"
      transform="matrix(13.888917,0,0,13.888764,115.49955,58.937696)"
      id="polygon3219-2_21_"
      points="24.872,6.25 24.317,5.69 24.317,4.514 24.872,3.954 "
    />
    <polygon
      fill="#9a916c"
      transform="matrix(13.888917,0,0,13.888764,115.49955,58.937696)"
      id="polygon25_21_"
      points="22.575,6.25 23.133,5.69 24.317,5.69 24.872,6.25 "
    />
    <rect
      stroke-width="13.88884068"
      fill="#8c8663"
      height="16.416521"
      x="436.79187"
      y="221.40839"
      id="rect3223-82_21_"
      width="16.4167"
    />
    <polygon
      fill="#b8af82"
      transform="matrix(13.888917,0,0,13.888764,115.49955,58.937696)"
      id="polygon3225-89_21_"
      points="22.575,11.143 22.575,13.437 23.133,12.878 23.133,11.701 "
    />
    <polygon
      fill="#80795b"
      transform="matrix(13.888917,0,0,13.888764,115.49955,58.937696)"
      id="polygon3227-07_21_"
      points="24.872,11.143 24.317,11.701 23.133,11.701 22.575,11.143 "
    />
    <polygon
      fill="#5e5b43"
      transform="matrix(13.888917,0,0,13.888764,115.49955,58.937696)"
      id="polygon3229-8_21_"
      points="24.872,13.437 24.317,12.878 24.317,11.701 24.872,11.143 "
    />
    <polygon
      fill="#9a916c"
      transform="matrix(13.888917,0,0,13.888764,115.49955,58.937696)"
      id="dnc24_21_"
      points="24.317,12.878 24.872,13.437 22.575,13.437 23.133,12.878 "
    />
    <polygon
      fill="#404040"
      transform="matrix(13.888917,0,0,13.888764,115.49955,58.937696)"
      id="polygon3153-8_20_"
      points="34.524,10.406 34.524,7.07 34.524,3.143 32.959,1.634 28.889,1.634 27.324,3.143 27.324,7.07 27.324,10.406 27.324,14.334 28.889,15.842 32.959,15.842 34.524,14.334 "
    />
    <polygon
      fill="#404040"
      transform="matrix(13.888917,0,0,13.888764,115.49955,58.937696)"
      id="polygon3159-0_20_"
      points="34.524,10.406 34.524,7.07 34.524,3.143 32.959,1.634 28.889,1.634 27.324,3.143 27.324,7.07 27.324,10.406 27.324,14.334 28.889,15.842 32.959,15.842 34.524,14.334 "
    />
    <rect
      stroke-width="13.88884068"
      fill="#8c8663"
      height="16.402632"
      x="536.79211"
      y="121.57596"
      id="rect3213-8_20_"
      width="16.4167"
    />
    <polygon
      fill="#b8af82"
      transform="matrix(13.888917,0,0,13.888764,115.49955,58.937696)"
      id="polygon3215-9_20_"
      points="29.776,3.954 29.776,6.25 30.333,5.69 30.333,4.514 "
    />
    <polygon
      fill="#80795b"
      transform="matrix(13.888917,0,0,13.888764,115.49955,58.937696)"
      id="polygon3217-7_20_"
      points="32.072,3.954 31.517,4.514 30.333,4.514 29.776,3.954 "
    />
    <polygon
      fill="#5e5b43"
      transform="matrix(13.888917,0,0,13.888764,115.49955,58.937696)"
      id="polygon3219-2_20_"
      points="32.072,6.25 31.517,5.69 31.517,4.514 32.072,3.954 "
    />
    <polygon
      fill="#9a916c"
      transform="matrix(13.888917,0,0,13.888764,115.49955,58.937696)"
      id="polygon25_20_"
      points="29.776,6.25 30.333,5.69 31.517,5.69 32.072,6.25 "
    />
    <rect
      stroke-width="13.88884068"
      fill="#8c8663"
      height="16.416521"
      x="536.79211"
      y="221.40839"
      id="rect3223-82_20_"
      width="16.4167"
    />
    <polygon
      fill="#b8af82"
      transform="matrix(13.888917,0,0,13.888764,115.49955,58.937696)"
      id="polygon3225-89_20_"
      points="29.776,11.143 29.776,13.437 30.333,12.878 30.333,11.701 "
    />
    <polygon
      fill="#80795b"
      transform="matrix(13.888917,0,0,13.888764,115.49955,58.937696)"
      id="polygon3227-07_20_"
      points="32.072,11.143 31.517,11.701 30.333,11.701 29.776,11.143 "
    />
    <polygon
      fill="#5e5b43"
      transform="matrix(13.888917,0,0,13.888764,115.49955,58.937696)"
      id="polygon3229-8_20_"
      points="32.072,13.437 31.517,12.878 31.517,11.701 32.072,11.143 "
    />
    <polygon
      fill="#9a916c"
      transform="matrix(13.888917,0,0,13.888764,115.49955,58.937696)"
      id="dnc24_20_"
      points="31.517,12.878 32.072,13.437 29.776,13.437 30.333,12.878 "
    />
    <polygon
      fill="#404040"
      transform="matrix(13.888917,0,0,13.888764,115.49955,58.937696)"
      id="polygon3153-8_19_"
      points="41.724,10.406 41.724,7.07 41.724,3.143 40.159,1.634 36.089,1.634 34.525,3.143 34.525,7.07 34.525,10.406 34.525,14.334 36.089,15.842 40.159,15.842 41.724,14.334 "
    />
    <polygon
      fill="#404040"
      transform="matrix(13.888917,0,0,13.888764,115.49955,58.937696)"
      id="polygon3159-0_19_"
      points="41.724,10.406 41.724,7.07 41.724,3.143 40.159,1.634 36.089,1.634 34.525,3.143 34.525,7.07 34.525,10.406 34.525,14.334 36.089,15.842 40.159,15.842 41.724,14.334 "
    />
    <rect
      stroke-width="13.88884068"
      fill="#8c8663"
      height="16.402632"
      x="636.7923"
      y="121.57596"
      id="rect3213-8_19_"
      width="16.4167"
    />
    <polygon
      fill="#b8af82"
      transform="matrix(13.888917,0,0,13.888764,115.49955,58.937696)"
      id="polygon3215-9_19_"
      points="36.976,3.954 36.976,6.25 37.533,5.69 37.533,4.514 "
    />
    <polygon
      fill="#80795b"
      transform="matrix(13.888917,0,0,13.888764,115.49955,58.937696)"
      id="polygon3217-7_19_"
      points="39.273,3.954 38.717,4.514 37.533,4.514 36.976,3.954 "
    />
    <polygon
      fill="#5e5b43"
      transform="matrix(13.888917,0,0,13.888764,115.49955,58.937696)"
      id="polygon3219-2_19_"
      points="39.273,6.25 38.717,5.69 38.717,4.514 39.273,3.954 "
    />
    <polygon
      fill="#9a916c"
      transform="matrix(13.888917,0,0,13.888764,115.49955,58.937696)"
      id="polygon25_19_"
      points="36.976,6.25 37.533,5.69 38.717,5.69 39.273,6.25 "
    />
    <rect
      stroke-width="13.88884068"
      fill="#8c8663"
      height="16.416521"
      x="636.7923"
      y="221.40839"
      id="rect3223-82_19_"
      width="16.4167"
    />
    <polygon
      fill="#b8af82"
      transform="matrix(13.888917,0,0,13.888764,115.49955,58.937696)"
      id="polygon3225-89_19_"
      points="36.976,11.143 36.976,13.437 37.533,12.878 37.533,11.701 "
    />
    <polygon
      fill="#80795b"
      transform="matrix(13.888917,0,0,13.888764,115.49955,58.937696)"
      id="polygon3227-07_19_"
      points="39.273,11.143 38.717,11.701 37.533,11.701 36.976,11.143 "
    />
    <polygon
      fill="#5e5b43"
      transform="matrix(13.888917,0,0,13.888764,115.49955,58.937696)"
      id="polygon3229-8_19_"
      points="39.273,13.437 38.717,12.878 38.717,11.701 39.273,11.143 "
    />
    <polygon
      fill="#9a916c"
      transform="matrix(13.888917,0,0,13.888764,115.49955,58.937696)"
      id="dnc24_19_"
      points="38.717,12.878 39.273,13.437 36.976,13.437 37.533,12.878 "
    />
    <polygon
      fill="#404040"
      transform="matrix(13.888917,0,0,13.888764,115.49955,58.937696)"
      id="polygon3153-8_18_"
      points="48.924,10.406 48.924,7.07 48.924,3.143 47.36,1.634 43.289,1.634 41.725,3.143 41.725,7.07 41.725,10.406 41.725,14.334 43.289,15.842 47.36,15.842 48.924,14.334 "
    />
    <polygon
      fill="#404040"
      transform="matrix(13.888917,0,0,13.888764,115.49955,58.937696)"
      id="polygon3159-0_18_"
      points="48.924,10.406 48.924,7.07 48.924,3.143 47.36,1.634 43.289,1.634 41.725,3.143 41.725,7.07 41.725,10.406 41.725,14.334 43.289,15.842 47.36,15.842 48.924,14.334 "
    />
    <rect
      stroke-width="13.88884068"
      fill="#8c8663"
      height="16.402632"
      x="736.8064"
      y="121.57596"
      id="rect3213-8_18_"
      width="16.4167"
    />
    <polygon
      fill="#b8af82"
      transform="matrix(13.888917,0,0,13.888764,115.49955,58.937696)"
      id="polygon3215-9_18_"
      points="44.176,3.954 44.176,6.25 44.734,5.69 44.734,4.514 "
    />
    <polygon
      fill="#80795b"
      transform="matrix(13.888917,0,0,13.888764,115.49955,58.937696)"
      id="polygon3217-7_18_"
      points="46.473,3.954 45.917,4.514 44.734,4.514 44.176,3.954 "
    />
    <polygon
      fill="#5e5b43"
      transform="matrix(13.888917,0,0,13.888764,115.49955,58.937696)"
      id="polygon3219-2_18_"
      points="46.473,6.25 45.917,5.69 45.917,4.514 46.473,3.954 "
    />
    <polygon
      fill="#9a916c"
      transform="matrix(13.888917,0,0,13.888764,115.49955,58.937696)"
      id="polygon25_18_"
      points="44.176,6.25 44.734,5.69 45.917,5.69 46.473,6.25 "
    />
    <rect
      stroke-width="13.88884068"
      fill="#8c8663"
      height="16.416521"
      x="736.8064"
      y="221.40839"
      id="rect3223-82_18_"
      width="16.4167"
    />
    <polygon
      fill="#b8af82"
      transform="matrix(13.888917,0,0,13.888764,115.49955,58.937696)"
      id="polygon3225-89_18_"
      points="44.176,11.143 44.176,13.437 44.734,12.878 44.734,11.701 "
    />
    <polygon
      fill="#80795b"
      transform="matrix(13.888917,0,0,13.888764,115.49955,58.937696)"
      id="polygon3227-07_18_"
      points="46.473,11.143 45.917,11.701 44.734,11.701 44.176,11.143 "
    />
    <polygon
      fill="#5e5b43"
      transform="matrix(13.888917,0,0,13.888764,115.49955,58.937696)"
      id="polygon3229-8_18_"
      points="46.473,13.437 45.917,12.878 45.917,11.701 46.473,11.143 "
    />
    <polygon
      fill="#9a916c"
      transform="matrix(13.888917,0,0,13.888764,115.49955,58.937696)"
      id="dnc24_18_"
      points="45.917,12.878 46.473,13.437 44.176,13.437 44.734,12.878 "
    />
    <polygon
      fill="#404040"
      transform="matrix(13.888917,0,0,13.888764,115.49955,58.937696)"
      id="polygon3153-8_17_"
      points="56.124,10.406 56.124,7.07 56.124,3.143 54.56,1.634 50.489,1.634 48.925,3.143 48.925,7.07 48.925,10.406 48.925,14.334 50.489,15.842 54.56,15.842 56.124,14.334 "
    />
    <polygon
      fill="#404040"
      transform="matrix(13.888917,0,0,13.888764,115.49955,58.937696)"
      id="polygon3159-0_17_"
      points="56.124,10.406 56.124,7.07 56.124,3.143 54.56,1.634 50.489,1.634 48.925,3.143 48.925,7.07 48.925,10.406 48.925,14.334 50.489,15.842 54.56,15.842 56.124,14.334 "
    />
    <rect
      stroke-width="13.88884068"
      fill="#8c8663"
      height="16.402632"
      x="836.80652"
      y="121.57596"
      id="rect3213-8_17_"
      width="16.4167"
    />
    <polygon
      fill="#b8af82"
      transform="matrix(13.888917,0,0,13.888764,115.49955,58.937696)"
      id="polygon3215-9_17_"
      points="51.376,3.954 51.376,6.25 51.934,5.69 51.934,4.514 "
    />
    <polygon
      fill="#80795b"
      transform="matrix(13.888917,0,0,13.888764,115.49955,58.937696)"
      id="polygon3217-7_17_"
      points="53.673,3.954 53.117,4.514 51.934,4.514 51.376,3.954 "
    />
    <polygon
      fill="#5e5b43"
      transform="matrix(13.888917,0,0,13.888764,115.49955,58.937696)"
      id="polygon3219-2_17_"
      points="53.673,6.25 53.117,5.69 53.117,4.514 53.673,3.954 "
    />
    <polygon
      fill="#9a916c"
      transform="matrix(13.888917,0,0,13.888764,115.49955,58.937696)"
      id="polygon25_17_"
      points="51.376,6.25 51.934,5.69 53.117,5.69 53.673,6.25 "
    />
    <rect
      stroke-width="13.88884068"
      fill="#8c8663"
      height="16.416521"
      x="836.80652"
      y="221.40839"
      id="rect3223-82_17_"
      width="16.4167"
    />
    <polygon
      fill="#b8af82"
      transform="matrix(13.888917,0,0,13.888764,115.49955,58.937696)"
      id="polygon3225-89_17_"
      points="51.376,11.143 51.376,13.437 51.934,12.878 51.934,11.701 "
    />
    <polygon
      fill="#80795b"
      transform="matrix(13.888917,0,0,13.888764,115.49955,58.937696)"
      id="polygon3227-07_17_"
      points="53.673,11.143 53.117,11.701 51.934,11.701 51.376,11.143 "
    />
    <polygon
      fill="#5e5b43"
      transform="matrix(13.888917,0,0,13.888764,115.49955,58.937696)"
      id="polygon3229-8_17_"
      points="53.673,13.437 53.117,12.878 53.117,11.701 53.673,11.143 "
    />
    <polygon
      fill="#9a916c"
      transform="matrix(13.888917,0,0,13.888764,115.49955,58.937696)"
      id="dnc24_17_"
      points="53.117,12.878 53.673,13.437 51.376,13.437 51.934,12.878 "
    />
    <polygon
      fill="#404040"
      transform="matrix(13.888917,0,0,13.888764,115.49955,58.937696)"
      id="polygon3153-8_16_"
      points="63.324,10.406 63.324,7.07 63.324,3.143 61.76,1.634 57.69,1.634 56.125,3.143 56.125,7.07 56.125,10.406 56.125,14.334 57.69,15.842 61.76,15.842 63.324,14.334 "
    />
    <polygon
      fill="#404040"
      transform="matrix(13.888917,0,0,13.888764,115.49955,58.937696)"
      id="polygon3159-0_16_"
      points="63.324,10.406 63.324,7.07 63.324,3.143 61.76,1.634 57.69,1.634 56.125,3.143 56.125,7.07 56.125,10.406 56.125,14.334 57.69,15.842 61.76,15.842 63.324,14.334 "
    />
    <rect
      stroke-width="13.88884068"
      fill="#8c8663"
      height="16.402632"
      x="936.80676"
      y="121.57596"
      id="rect3213-8_16_"
      width="16.4167"
    />
    <polygon
      fill="#b8af82"
      transform="matrix(13.888917,0,0,13.888764,115.49955,58.937696)"
      id="polygon3215-9_16_"
      points="58.576,3.954 58.576,6.25 59.134,5.69 59.134,4.514 "
    />
    <polygon
      fill="#80795b"
      transform="matrix(13.888917,0,0,13.888764,115.49955,58.937696)"
      id="polygon3217-7_16_"
      points="60.873,3.954 60.318,4.514 59.134,4.514 58.576,3.954 "
    />
    <polygon
      fill="#5e5b43"
      transform="matrix(13.888917,0,0,13.888764,115.49955,58.937696)"
      id="polygon3219-2_16_"
      points="60.873,6.25 60.318,5.69 60.318,4.514 60.873,3.954 "
    />
    <polygon
      fill="#9a916c"
      transform="matrix(13.888917,0,0,13.888764,115.49955,58.937696)"
      id="polygon25_16_"
      points="58.576,6.25 59.134,5.69 60.318,5.69 60.873,6.25 "
    />
    <rect
      stroke-width="13.88884068"
      fill="#8c8663"
      height="16.416521"
      x="936.80676"
      y="221.40839"
      id="rect3223-82_16_"
      width="16.4167"
    />
    <polygon
      fill="#b8af82"
      transform="matrix(13.888917,0,0,13.888764,115.49955,58.937696)"
      id="polygon3225-89_16_"
      points="58.576,11.143 58.576,13.437 59.134,12.878 59.134,11.701 "
    />
    <polygon
      fill="#80795b"
      transform="matrix(13.888917,0,0,13.888764,115.49955,58.937696)"
      id="polygon3227-07_16_"
      points="60.873,11.143 60.318,11.701 59.134,11.701 58.576,11.143 "
    />
    <polygon
      fill="#5e5b43"
      transform="matrix(13.888917,0,0,13.888764,115.49955,58.937696)"
      id="polygon3229-8_16_"
      points="60.873,13.437 60.318,12.878 60.318,11.701 60.873,11.143 "
    />
    <polygon
      fill="#9a916c"
      transform="matrix(13.888917,0,0,13.888764,115.49955,58.937696)"
      id="dnc24_16_"
      points="60.318,12.878 60.873,13.437 58.576,13.437 59.134,12.878 "
    />
    <polygon
      fill="#404040"
      transform="matrix(13.888917,0,0,13.888764,115.49955,58.937696)"
      id="polygon3153-8_15_"
      points="70.525,10.406 70.525,7.07 70.525,3.143 68.96,1.634 64.89,1.634 63.325,3.143 63.325,7.07 63.325,10.406 63.325,14.334 64.89,15.842 68.96,15.842 70.525,14.334 "
    />
    <polygon
      fill="#404040"
      transform="matrix(13.888917,0,0,13.888764,115.49955,58.937696)"
      id="polygon3159-0_15_"
      points="70.525,10.406 70.525,7.07 70.525,3.143 68.96,1.634 64.89,1.634 63.325,3.143 63.325,7.07 63.325,10.406 63.325,14.334 64.89,15.842 68.96,15.842 70.525,14.334 "
    />
    <rect
      stroke-width="13.88884068"
      fill="#8c8663"
      height="16.402632"
      x="1036.807"
      y="121.57596"
      id="rect3213-8_15_"
      width="16.4167"
    />
    <polygon
      fill="#b8af82"
      transform="matrix(13.888917,0,0,13.888764,115.49955,58.937696)"
      id="polygon3215-9_15_"
      points="65.777,3.954 65.777,6.25 66.334,5.69 66.334,4.514 "
    />
    <polygon
      fill="#80795b"
      transform="matrix(13.888917,0,0,13.888764,115.49955,58.937696)"
      id="polygon3217-7_15_"
      points="68.073,3.954 67.518,4.514 66.334,4.514 65.777,3.954 "
    />
    <polygon
      fill="#5e5b43"
      transform="matrix(13.888917,0,0,13.888764,115.49955,58.937696)"
      id="polygon3219-2_15_"
      points="68.073,6.25 67.518,5.69 67.518,4.514 68.073,3.954 "
    />
    <polygon
      fill="#9a916c"
      transform="matrix(13.888917,0,0,13.888764,115.49955,58.937696)"
      id="polygon25_15_"
      points="65.777,6.25 66.334,5.69 67.518,5.69 68.073,6.25 "
    />
    <rect
      stroke-width="13.88884068"
      fill="#8c8663"
      height="16.416521"
      x="1036.807"
      y="221.40839"
      id="rect3223-82_15_"
      width="16.4167"
    />
    <polygon
      fill="#b8af82"
      transform="matrix(13.888917,0,0,13.888764,115.49955,58.937696)"
      id="polygon3225-89_15_"
      points="65.777,11.143 65.777,13.437 66.334,12.878 66.334,11.701 "
    />
    <polygon
      fill="#80795b"
      transform="matrix(13.888917,0,0,13.888764,115.49955,58.937696)"
      id="polygon3227-07_15_"
      points="68.073,11.143 67.518,11.701 66.334,11.701 65.777,11.143 "
    />
    <polygon
      fill="#5e5b43"
      transform="matrix(13.888917,0,0,13.888764,115.49955,58.937696)"
      id="polygon3229-8_15_"
      points="68.073,13.437 67.518,12.878 67.518,11.701 68.073,11.143 "
    />
    <polygon
      fill="#9a916c"
      transform="matrix(13.888917,0,0,13.888764,115.49955,58.937696)"
      id="dnc24_15_"
      points="67.518,12.878 68.073,13.437 65.777,13.437 66.334,12.878 "
    />
    <polygon
      fill="#404040"
      transform="matrix(13.888917,0,0,13.888764,115.49955,58.937696)"
      id="polygon3153-8_14_"
      points="77.725,10.406 77.725,7.07 77.725,3.143 76.16,1.634 72.09,1.634 70.526,3.143 70.526,7.07 70.526,10.406 70.526,14.334 72.09,15.842 76.16,15.842 77.725,14.334 "
    />
    <polygon
      fill="#404040"
      transform="matrix(13.888917,0,0,13.888764,115.49955,58.937696)"
      id="polygon3159-0_14_"
      points="77.725,10.406 77.725,7.07 77.725,3.143 76.16,1.634 72.09,1.634 70.526,3.143 70.526,7.07 70.526,10.406 70.526,14.334 72.09,15.842 76.16,15.842 77.725,14.334 "
    />
    <rect
      stroke-width="13.88884068"
      fill="#8c8663"
      height="16.402632"
      x="1136.8071"
      y="121.57596"
      id="rect3213-8_14_"
      width="16.4167"
    />
    <polygon
      fill="#b8af82"
      transform="matrix(13.888917,0,0,13.888764,115.49955,58.937696)"
      id="polygon3215-9_14_"
      points="72.977,3.954 72.977,6.25 73.534,5.69 73.534,4.514 "
    />
    <polygon
      fill="#80795b"
      transform="matrix(13.888917,0,0,13.888764,115.49955,58.937696)"
      id="polygon3217-7_14_"
      points="75.274,3.954 74.718,4.514 73.534,4.514 72.977,3.954 "
    />
    <polygon
      fill="#5e5b43"
      transform="matrix(13.888917,0,0,13.888764,115.49955,58.937696)"
      id="polygon3219-2_14_"
      points="75.274,6.25 74.718,5.69 74.718,4.514 75.274,3.954 "
    />
    <polygon
      fill="#9a916c"
      transform="matrix(13.888917,0,0,13.888764,115.49955,58.937696)"
      id="polygon25_14_"
      points="72.977,6.25 73.534,5.69 74.718,5.69 75.274,6.25 "
    />
    <rect
      stroke-width="13.88884068"
      fill="#8c8663"
      height="16.416521"
      x="1136.8071"
      y="221.40839"
      id="rect3223-82_14_"
      width="16.4167"
    />
    <polygon
      fill="#b8af82"
      transform="matrix(13.888917,0,0,13.888764,115.49955,58.937696)"
      id="polygon3225-89_14_"
      points="72.977,11.143 72.977,13.437 73.534,12.878 73.534,11.701 "
    />
    <polygon
      fill="#80795b"
      transform="matrix(13.888917,0,0,13.888764,115.49955,58.937696)"
      id="polygon3227-07_14_"
      points="75.274,11.143 74.718,11.701 73.534,11.701 72.977,11.143 "
    />
    <polygon
      fill="#5e5b43"
      transform="matrix(13.888917,0,0,13.888764,115.49955,58.937696)"
      id="polygon3229-8_14_"
      points="75.274,13.437 74.718,12.878 74.718,11.701 75.274,11.143 "
    />
    <polygon
      fill="#9a916c"
      transform="matrix(13.888917,0,0,13.888764,115.49955,58.937696)"
      id="dnc24_14_"
      points="74.718,12.878 75.274,13.437 72.977,13.437 73.534,12.878 "
    />
    <polygon
      fill="#404040"
      transform="matrix(13.888917,0,0,13.888764,115.49955,58.937696)"
      id="polygon3153-8_13_"
      points="84.925,10.406 84.925,7.07 84.925,3.143 83.361,1.634 79.29,1.634 77.726,3.143 77.726,7.07 77.726,10.406 77.726,14.334 79.29,15.842 83.361,15.842 84.925,14.334 "
    />
    <polygon
      fill="#404040"
      transform="matrix(13.888917,0,0,13.888764,115.49955,58.937696)"
      id="polygon3159-0_13_"
      points="84.925,10.406 84.925,7.07 84.925,3.143 83.361,1.634 79.29,1.634 77.726,3.143 77.726,7.07 77.726,10.406 77.726,14.334 79.29,15.842 83.361,15.842 84.925,14.334 "
    />
    <rect
      stroke-width="13.88884068"
      fill="#8c8663"
      height="16.402632"
      x="1236.8213"
      y="121.57596"
      id="rect3213-8_13_"
      width="16.4167"
    />
    <polygon
      fill="#b8af82"
      transform="matrix(13.888917,0,0,13.888764,115.49955,58.937696)"
      id="polygon3215-9_13_"
      points="80.177,3.954 80.177,6.25 80.735,5.69 80.735,4.514 "
    />
    <polygon
      fill="#80795b"
      transform="matrix(13.888917,0,0,13.888764,115.49955,58.937696)"
      id="polygon3217-7_13_"
      points="82.474,3.954 81.918,4.514 80.735,4.514 80.177,3.954 "
    />
    <polygon
      fill="#5e5b43"
      transform="matrix(13.888917,0,0,13.888764,115.49955,58.937696)"
      id="polygon3219-2_13_"
      points="82.474,6.25 81.918,5.69 81.918,4.514 82.474,3.954 "
    />
    <polygon
      fill="#9a916c"
      transform="matrix(13.888917,0,0,13.888764,115.49955,58.937696)"
      id="polygon25_13_"
      points="80.177,6.25 80.735,5.69 81.918,5.69 82.474,6.25 "
    />
    <rect
      stroke-width="13.88884068"
      fill="#8c8663"
      height="16.416521"
      x="1236.8213"
      y="221.40839"
      id="rect3223-82_13_"
      width="16.4167"
    />
    <polygon
      fill="#b8af82"
      transform="matrix(13.888917,0,0,13.888764,115.49955,58.937696)"
      id="polygon3225-89_13_"
      points="80.177,11.143 80.177,13.437 80.735,12.878 80.735,11.701 "
    />
    <polygon
      fill="#80795b"
      transform="matrix(13.888917,0,0,13.888764,115.49955,58.937696)"
      id="polygon3227-07_13_"
      points="82.474,11.143 81.918,11.701 80.735,11.701 80.177,11.143 "
    />
    <polygon
      fill="#5e5b43"
      transform="matrix(13.888917,0,0,13.888764,115.49955,58.937696)"
      id="polygon3229-8_13_"
      points="82.474,13.437 81.918,12.878 81.918,11.701 82.474,11.143 "
    />
    <polygon
      fill="#9a916c"
      transform="matrix(13.888917,0,0,13.888764,115.49955,58.937696)"
      id="dnc24_13_"
      points="81.918,12.878 82.474,13.437 80.177,13.437 80.735,12.878 "
    />
    <polygon
      fill="#404040"
      transform="matrix(13.888917,0,0,13.888764,115.49955,58.937696)"
      id="polygon3153-8_12_"
      points="92.125,10.406 92.125,7.07 92.125,3.143 90.561,1.634 86.49,1.634 84.926,3.143 84.926,7.07 84.926,10.406 84.926,14.334 86.49,15.842 90.561,15.842 92.125,14.334 "
    />
    <polygon
      fill="#404040"
      transform="matrix(13.888917,0,0,13.888764,115.49955,58.937696)"
      id="polygon3159-0_12_"
      points="92.125,10.406 92.125,7.07 92.125,3.143 90.561,1.634 86.49,1.634 84.926,3.143 84.926,7.07 84.926,10.406 84.926,14.334 86.49,15.842 90.561,15.842 92.125,14.334 "
    />
    <rect
      stroke-width="13.88884068"
      fill="#8c8663"
      height="16.402632"
      x="1336.8215"
      y="121.57596"
      id="rect3213-8_12_"
      width="16.4167"
    />
    <polygon
      fill="#b8af82"
      transform="matrix(13.888917,0,0,13.888764,115.49955,58.937696)"
      id="polygon3215-9_12_"
      points="87.377,3.954 87.377,6.25 87.935,5.69 87.935,4.514 "
    />
    <polygon
      fill="#80795b"
      transform="matrix(13.888917,0,0,13.888764,115.49955,58.937696)"
      id="polygon3217-7_12_"
      points="89.674,3.954 89.118,4.514 87.935,4.514 87.377,3.954 "
    />
    <polygon
      fill="#5e5b43"
      transform="matrix(13.888917,0,0,13.888764,115.49955,58.937696)"
      id="polygon3219-2_12_"
      points="89.674,6.25 89.118,5.69 89.118,4.514 89.674,3.954 "
    />
    <polygon
      fill="#9a916c"
      transform="matrix(13.888917,0,0,13.888764,115.49955,58.937696)"
      id="polygon25_12_"
      points="87.377,6.25 87.935,5.69 89.118,5.69 89.674,6.25 "
    />
    <rect
      stroke-width="13.88884068"
      fill="#8c8663"
      height="16.416521"
      x="1336.8215"
      y="221.40839"
      id="rect3223-82_12_"
      width="16.4167"
    />
    <polygon
      fill="#b8af82"
      transform="matrix(13.888917,0,0,13.888764,115.49955,58.937696)"
      id="polygon3225-89_12_"
      points="87.377,11.143 87.377,13.437 87.935,12.878 87.935,11.701 "
    />
    <polygon
      fill="#80795b"
      transform="matrix(13.888917,0,0,13.888764,115.49955,58.937696)"
      id="polygon3227-07_12_"
      points="89.674,11.143 89.118,11.701 87.935,11.701 87.377,11.143 "
    />
    <polygon
      fill="#5e5b43"
      transform="matrix(13.888917,0,0,13.888764,115.49955,58.937696)"
      id="polygon3229-8_12_"
      points="89.674,13.437 89.118,12.878 89.118,11.701 89.674,11.143 "
    />
    <polygon
      fill="#9a916c"
      transform="matrix(13.888917,0,0,13.888764,115.49955,58.937696)"
      id="dnc24_12_"
      points="89.118,12.878 89.674,13.437 87.377,13.437 87.935,12.878 "
    />
    <polygon
      fill="#404040"
      transform="matrix(13.888917,0,0,13.888764,115.49955,58.937696)"
      id="polygon3153-8_11_"
      points="99.325,10.406 99.325,7.07 99.325,3.143 97.761,1.634 93.691,1.634 92.126,3.143 92.126,7.07 92.126,10.406 92.126,14.334 93.691,15.842 97.761,15.842 99.325,14.334 "
    />
    <polygon
      fill="#404040"
      transform="matrix(13.888917,0,0,13.888764,115.49955,58.937696)"
      id="polygon3159-0_11_"
      points="99.325,10.406 99.325,7.07 99.325,3.143 97.761,1.634 93.691,1.634 92.126,3.143 92.126,7.07 92.126,10.406 92.126,14.334 93.691,15.842 97.761,15.842 99.325,14.334 "
    />
    <rect
      stroke-width="13.88884068"
      fill="#8c8663"
      height="16.402632"
      x="1436.8218"
      y="121.57596"
      id="rect3213-8_11_"
      width="16.4167"
    />
    <polygon
      fill="#b8af82"
      transform="matrix(13.888917,0,0,13.888764,115.49955,58.937696)"
      id="polygon3215-9_11_"
      points="94.577,3.954 94.577,6.25 95.135,5.69 95.135,4.514 "
    />
    <polygon
      fill="#80795b"
      transform="matrix(13.888917,0,0,13.888764,115.49955,58.937696)"
      id="polygon3217-7_11_"
      points="96.874,3.954 96.319,4.514 95.135,4.514 94.577,3.954 "
    />
    <polygon
      fill="#5e5b43"
      transform="matrix(13.888917,0,0,13.888764,115.49955,58.937696)"
      id="polygon3219-2_11_"
      points="96.874,6.25 96.319,5.69 96.319,4.514 96.874,3.954 "
    />
    <polygon
      fill="#9a916c"
      transform="matrix(13.888917,0,0,13.888764,115.49955,58.937696)"
      id="polygon25_11_"
      points="94.577,6.25 95.135,5.69 96.319,5.69 96.874,6.25 "
    />
    <rect
      stroke-width="13.88884068"
      fill="#8c8663"
      height="16.416521"
      x="1436.8218"
      y="221.40839"
      id="rect3223-82_11_"
      width="16.4167"
    />
    <polygon
      fill="#b8af82"
      transform="matrix(13.888917,0,0,13.888764,115.49955,58.937696)"
      id="polygon3225-89_11_"
      points="94.577,11.143 94.577,13.437 95.135,12.878 95.135,11.701 "
    />
    <polygon
      fill="#80795b"
      transform="matrix(13.888917,0,0,13.888764,115.49955,58.937696)"
      id="polygon3227-07_11_"
      points="96.874,11.143 96.319,11.701 95.135,11.701 94.577,11.143 "
    />
    <polygon
      fill="#5e5b43"
      transform="matrix(13.888917,0,0,13.888764,115.49955,58.937696)"
      id="polygon3229-8_11_"
      points="96.874,13.437 96.319,12.878 96.319,11.701 96.874,11.143 "
    />
    <polygon
      fill="#9a916c"
      transform="matrix(13.888917,0,0,13.888764,115.49955,58.937696)"
      id="dnc24_11_"
      points="96.319,12.878 96.874,13.437 94.577,13.437 95.135,12.878 "
    />
    <polygon
      fill="#404040"
      transform="matrix(13.888917,0,0,13.888764,115.49955,58.937696)"
      id="polygon3153-8_10_"
      points="106.526,10.406 106.526,7.07 106.526,3.143 104.961,1.634 100.891,1.634 99.326,3.143 99.326,7.07 99.326,10.406 99.326,14.334 100.891,15.842 104.961,15.842 106.526,14.334 "
    />
    <polygon
      fill="#404040"
      transform="matrix(13.888917,0,0,13.888764,115.49955,58.937696)"
      id="polygon3159-0_10_"
      points="106.526,10.406 106.526,7.07 106.526,3.143 104.961,1.634 100.891,1.634 99.326,3.143 99.326,7.07 99.326,10.406 99.326,14.334 100.891,15.842 104.961,15.842 106.526,14.334 "
    />
    <rect
      stroke-width="13.88884068"
      fill="#8c8663"
      height="16.402632"
      x="1536.8219"
      y="121.57596"
      id="rect3213-8_10_"
      width="16.4167"
    />
    <polygon
      fill="#b8af82"
      transform="matrix(13.888917,0,0,13.888764,115.49955,58.937696)"
      id="polygon3215-9_10_"
      points="101.778,3.954 101.778,6.25 102.335,5.69 102.335,4.514 "
    />
    <polygon
      fill="#80795b"
      transform="matrix(13.888917,0,0,13.888764,115.49955,58.937696)"
      id="polygon3217-7_10_"
      points="104.074,3.954 103.519,4.514 102.335,4.514 101.778,3.954 "
    />
    <polygon
      fill="#5e5b43"
      transform="matrix(13.888917,0,0,13.888764,115.49955,58.937696)"
      id="polygon3219-2_10_"
      points="104.074,6.25 103.519,5.69 103.519,4.514 104.074,3.954 "
    />
    <polygon
      fill="#9a916c"
      transform="matrix(13.888917,0,0,13.888764,115.49955,58.937696)"
      id="polygon25_10_"
      points="101.778,6.25 102.335,5.69 103.519,5.69 104.074,6.25 "
    />
    <rect
      stroke-width="13.88884068"
      fill="#8c8663"
      height="16.416521"
      x="1536.8219"
      y="221.40839"
      id="rect3223-82_10_"
      width="16.4167"
    />
    <polygon
      fill="#b8af82"
      transform="matrix(13.888917,0,0,13.888764,115.49955,58.937696)"
      id="polygon3225-89_10_"
      points="101.778,11.143 101.778,13.437 102.335,12.878 102.335,11.701 "
    />
    <polygon
      fill="#80795b"
      transform="matrix(13.888917,0,0,13.888764,115.49955,58.937696)"
      id="polygon3227-07_10_"
      points="104.074,11.143 103.519,11.701 102.335,11.701 101.778,11.143 "
    />
    <polygon
      fill="#5e5b43"
      transform="matrix(13.888917,0,0,13.888764,115.49955,58.937696)"
      id="polygon3229-8_10_"
      points="104.074,13.437 103.519,12.878 103.519,11.701 104.074,11.143 "
    />
    <polygon
      fill="#9a916c"
      transform="matrix(13.888917,0,0,13.888764,115.49955,58.937696)"
      id="dnc24_10_"
      points="103.519,12.878 104.074,13.437 101.778,13.437 102.335,12.878 "
    />
    <polygon
      fill="#404040"
      transform="matrix(13.888917,0,0,13.888764,115.49955,58.937696)"
      id="polygon3153-8_9_"
      points="113.726,10.406 113.726,7.07 113.726,3.143 112.161,1.634 108.091,1.634 106.527,3.143 106.527,7.07 106.527,10.406 106.527,14.334 108.091,15.842 112.161,15.842 113.726,14.334 "
    />
    <polygon
      fill="#404040"
      transform="matrix(13.888917,0,0,13.888764,115.49955,58.937696)"
      id="polygon3159-0_9_"
      points="113.726,10.406 113.726,7.07 113.726,3.143 112.161,1.634 108.091,1.634 106.527,3.143 106.527,7.07 106.527,10.406 106.527,14.334 108.091,15.842 112.161,15.842 113.726,14.334 "
    />
    <rect
      stroke-width="13.88884068"
      fill="#8c8663"
      height="16.402632"
      x="1636.8221"
      y="121.57596"
      id="rect3213-8_9_"
      width="16.4167"
    />
    <polygon
      fill="#b8af82"
      transform="matrix(13.888917,0,0,13.888764,115.49955,58.937696)"
      id="polygon3215-9_9_"
      points="108.978,3.954 108.978,6.25 109.535,5.69 109.535,4.514 "
    />
    <polygon
      fill="#80795b"
      transform="matrix(13.888917,0,0,13.888764,115.49955,58.937696)"
      id="polygon3217-7_9_"
      points="111.275,3.954 110.719,4.514 109.535,4.514 108.978,3.954 "
    />
    <polygon
      fill="#5e5b43"
      transform="matrix(13.888917,0,0,13.888764,115.49955,58.937696)"
      id="polygon3219-2_9_"
      points="111.275,6.25 110.719,5.69 110.719,4.514 111.275,3.954 "
    />
    <polygon
      fill="#9a916c"
      transform="matrix(13.888917,0,0,13.888764,115.49955,58.937696)"
      id="polygon25_9_"
      points="108.978,6.25 109.535,5.69 110.719,5.69 111.275,6.25 "
    />
    <rect
      stroke-width="13.88884068"
      fill="#8c8663"
      height="16.416521"
      x="1636.8221"
      y="221.40839"
      id="rect3223-82_9_"
      width="16.4167"
    />
    <polygon
      fill="#b8af82"
      transform="matrix(13.888917,0,0,13.888764,115.49955,58.937696)"
      id="polygon3225-89_9_"
      points="108.978,11.143 108.978,13.437 109.535,12.878 109.535,11.701 "
    />
    <polygon
      fill="#80795b"
      transform="matrix(13.888917,0,0,13.888764,115.49955,58.937696)"
      id="polygon3227-07_9_"
      points="111.275,11.143 110.719,11.701 109.535,11.701 108.978,11.143 "
    />
    <polygon
      fill="#5e5b43"
      transform="matrix(13.888917,0,0,13.888764,115.49955,58.937696)"
      id="polygon3229-8_9_"
      points="111.275,13.437 110.719,12.878 110.719,11.701 111.275,11.143 "
    />
    <polygon
      fill="#9a916c"
      transform="matrix(13.888917,0,0,13.888764,115.49955,58.937696)"
      id="dnc24_9_"
      points="110.719,12.878 111.275,13.437 108.978,13.437 109.535,12.878 "
    />
    <polygon
      fill="#404040"
      transform="matrix(13.888917,0,0,13.888764,115.49955,58.937696)"
      id="polygon3153-8_8_"
      points="120.926,10.406 120.926,7.07 120.926,3.143 119.362,1.634 115.291,1.634 113.727,3.143 113.727,7.07 113.727,10.406 113.727,14.334 115.291,15.842 119.362,15.842 120.926,14.334 "
    />
    <polygon
      fill="#404040"
      transform="matrix(13.888917,0,0,13.888764,115.49955,58.937696)"
      id="polygon3159-0_8_"
      points="120.926,10.406 120.926,7.07 120.926,3.143 119.362,1.634 115.291,1.634 113.727,3.143 113.727,7.07 113.727,10.406 113.727,14.334 115.291,15.842 119.362,15.842 120.926,14.334 "
    />
    <rect
      stroke-width="13.88884068"
      fill="#8c8663"
      height="16.402632"
      x="1736.8362"
      y="121.57596"
      id="rect3213-8_8_"
      width="16.4167"
    />
    <polygon
      fill="#b8af82"
      transform="matrix(13.888917,0,0,13.888764,115.49955,58.937696)"
      id="polygon3215-9_8_"
      points="116.178,3.954 116.178,6.25 116.736,5.69 116.736,4.514 "
    />
    <polygon
      fill="#80795b"
      transform="matrix(13.888917,0,0,13.888764,115.49955,58.937696)"
      id="polygon3217-7_8_"
      points="118.475,3.954 117.919,4.514 116.736,4.514 116.178,3.954 "
    />
    <polygon
      fill="#5e5b43"
      transform="matrix(13.888917,0,0,13.888764,115.49955,58.937696)"
      id="polygon3219-2_8_"
      points="118.475,6.25 117.919,5.69 117.919,4.514 118.475,3.954 "
    />
    <polygon
      fill="#9a916c"
      transform="matrix(13.888917,0,0,13.888764,115.49955,58.937696)"
      id="polygon25_8_"
      points="116.178,6.25 116.736,5.69 117.919,5.69 118.475,6.25 "
    />
    <rect
      stroke-width="13.88884068"
      fill="#8c8663"
      height="16.416521"
      x="1736.8362"
      y="221.40839"
      id="rect3223-82_8_"
      width="16.4167"
    />
    <polygon
      fill="#b8af82"
      transform="matrix(13.888917,0,0,13.888764,115.49955,58.937696)"
      id="polygon3225-89_8_"
      points="116.178,11.143 116.178,13.437 116.736,12.878 116.736,11.701 "
    />
    <polygon
      fill="#80795b"
      transform="matrix(13.888917,0,0,13.888764,115.49955,58.937696)"
      id="polygon3227-07_8_"
      points="118.475,11.143 117.919,11.701 116.736,11.701 116.178,11.143 "
    />
    <polygon
      fill="#5e5b43"
      transform="matrix(13.888917,0,0,13.888764,115.49955,58.937696)"
      id="polygon3229-8_8_"
      points="118.475,13.437 117.919,12.878 117.919,11.701 118.475,11.143 "
    />
    <polygon
      fill="#9a916c"
      transform="matrix(13.888917,0,0,13.888764,115.49955,58.937696)"
      id="dnc24_8_"
      points="117.919,12.878 118.475,13.437 116.178,13.437 116.736,12.878 "
    />
    <polygon
      fill="#404040"
      transform="matrix(13.888917,0,0,13.888764,115.49955,58.937696)"
      id="polygon3153-8_7_"
      points="128.126,10.406 128.126,7.07 128.126,3.143 126.562,1.634 122.491,1.634 120.927,3.143 120.927,7.07 120.927,10.406 120.927,14.334 122.491,15.842 126.562,15.842 128.126,14.334 "
    />
    <polygon
      fill="#404040"
      transform="matrix(13.888917,0,0,13.888764,115.49955,58.937696)"
      id="polygon3159-0_7_"
      points="128.126,10.406 128.126,7.07 128.126,3.143 126.562,1.634 122.491,1.634 120.927,3.143 120.927,7.07 120.927,10.406 120.927,14.334 122.491,15.842 126.562,15.842 128.126,14.334 "
    />
    <rect
      stroke-width="13.88884068"
      fill="#8c8663"
      height="16.402632"
      x="1836.8364"
      y="121.57596"
      id="rect3213-8_7_"
      width="16.43059"
    />
    <polygon
      fill="#b8af82"
      transform="matrix(13.888917,0,0,13.888764,115.49955,58.937696)"
      id="polygon3215-9_7_"
      points="123.378,3.954 123.378,6.25 123.936,5.69 123.936,4.514 "
    />
    <polygon
      fill="#80795b"
      transform="matrix(13.888917,0,0,13.888764,115.49955,58.937696)"
      id="polygon3217-7_7_"
      points="125.675,3.954 125.119,4.514 123.936,4.514 123.378,3.954 "
    />
    <polygon
      fill="#5e5b43"
      transform="matrix(13.888917,0,0,13.888764,115.49955,58.937696)"
      id="polygon3219-2_7_"
      points="125.675,6.25 125.119,5.69 125.119,4.514 125.675,3.954 "
    />
    <polygon
      fill="#9a916c"
      transform="matrix(13.888917,0,0,13.888764,115.49955,58.937696)"
      id="polygon25_7_"
      points="123.378,6.25 123.936,5.69 125.119,5.69 125.675,6.25 "
    />
    <rect
      stroke-width="13.88884068"
      fill="#8c8663"
      height="16.416521"
      x="1836.8364"
      y="221.40839"
      id="rect3223-82_7_"
      width="16.43059"
    />
    <polygon
      fill="#b8af82"
      transform="matrix(13.888917,0,0,13.888764,115.49955,58.937696)"
      id="polygon3225-89_7_"
      points="123.378,11.143 123.378,13.437 123.936,12.878 123.936,11.701 "
    />
    <polygon
      fill="#80795b"
      transform="matrix(13.888917,0,0,13.888764,115.49955,58.937696)"
      id="polygon3227-07_7_"
      points="125.675,11.143 125.119,11.701 123.936,11.701 123.378,11.143 "
    />
    <polygon
      fill="#5e5b43"
      transform="matrix(13.888917,0,0,13.888764,115.49955,58.937696)"
      id="polygon3229-8_7_"
      points="125.675,13.437 125.119,12.878 125.119,11.701 125.675,11.143 "
    />
    <polygon
      fill="#9a916c"
      transform="matrix(13.888917,0,0,13.888764,115.49955,58.937696)"
      id="dnc24_7_"
      points="125.119,12.878 125.675,13.437 123.378,13.437 123.936,12.878 "
    />
    <polygon
      fill="#404040"
      transform="matrix(13.888917,0,0,13.888764,115.49955,58.937696)"
      id="polygon3153-8_6_"
      points="135.326,10.406 135.326,7.07 135.326,3.143 133.761,1.634 129.691,1.634 128.126,3.143 128.126,7.07 128.126,10.406 128.126,14.334 129.691,15.842 133.761,15.842 135.326,14.334 "
    />
    <polygon
      fill="#404040"
      transform="matrix(13.888917,0,0,13.888764,115.49955,58.937696)"
      id="polygon3159-0_6_"
      points="135.326,10.406 135.326,7.07 135.326,3.143 133.761,1.634 129.691,1.634 128.126,3.143 128.126,7.07 128.126,10.406 128.126,14.334 129.691,15.842 133.761,15.842 135.326,14.334 "
    />
    <rect
      stroke-width="13.88884068"
      fill="#8c8663"
      height="16.402632"
      x="1936.8367"
      y="121.57596"
      id="rect3213-8_6_"
      width="16.4167"
    />
    <polygon
      fill="#b8af82"
      transform="matrix(13.888917,0,0,13.888764,115.49955,58.937696)"
      id="polygon3215-9_6_"
      points="130.578,3.954 130.578,6.25 131.136,5.69 131.136,4.514 "
    />
    <polygon
      fill="#80795b"
      transform="matrix(13.888917,0,0,13.888764,115.49955,58.937696)"
      id="polygon3217-7_6_"
      points="132.875,3.954 132.32,4.514 131.136,4.514 130.578,3.954 "
    />
    <polygon
      fill="#5e5b43"
      transform="matrix(13.888917,0,0,13.888764,115.49955,58.937696)"
      id="polygon3219-2_6_"
      points="132.875,6.25 132.32,5.69 132.32,4.514 132.875,3.954 "
    />
    <polygon
      fill="#9a916c"
      transform="matrix(13.888917,0,0,13.888764,115.49955,58.937696)"
      id="polygon25_6_"
      points="130.578,6.25 131.136,5.69 132.32,5.69 132.875,6.25 "
    />
    <rect
      stroke-width="13.88884068"
      fill="#8c8663"
      height="16.416521"
      x="1936.8367"
      y="221.40839"
      id="rect3223-82_6_"
      width="16.4167"
    />
    <polygon
      fill="#b8af82"
      transform="matrix(13.888917,0,0,13.888764,115.49955,58.937696)"
      id="polygon3225-89_6_"
      points="130.578,11.143 130.578,13.437 131.136,12.878 131.136,11.701 "
    />
    <polygon
      fill="#80795b"
      transform="matrix(13.888917,0,0,13.888764,115.49955,58.937696)"
      id="polygon3227-07_6_"
      points="132.875,11.143 132.32,11.701 131.136,11.701 130.578,11.143 "
    />
    <polygon
      fill="#5e5b43"
      transform="matrix(13.888917,0,0,13.888764,115.49955,58.937696)"
      id="polygon3229-8_6_"
      points="132.875,13.437 132.32,12.878 132.32,11.701 132.875,11.143 "
    />
    <polygon
      fill="#9a916c"
      transform="matrix(13.888917,0,0,13.888764,115.49955,58.937696)"
      id="dnc24_6_"
      points="132.32,12.878 132.875,13.437 130.578,13.437 131.136,12.878 "
    />
    <polygon
      fill="#404040"
      transform="matrix(13.888917,0,0,13.888764,115.49955,58.937696)"
      id="polygon3153-8_5_"
      points="142.527,10.406 142.527,7.07 142.527,3.143 140.962,1.634 136.892,1.634 135.328,3.143 135.328,7.07 135.328,10.406 135.328,14.334 136.892,15.842 140.962,15.842 142.527,14.334 "
    />
    <polygon
      fill="#404040"
      transform="matrix(13.888917,0,0,13.888764,115.49955,58.937696)"
      id="polygon3159-0_5_"
      points="142.527,10.406 142.527,7.07 142.527,3.143 140.962,1.634 136.892,1.634 135.328,3.143 135.328,7.07 135.328,10.406 135.328,14.334 136.892,15.842 140.962,15.842 142.527,14.334 "
    />
    <rect
      stroke-width="13.88884068"
      fill="#8c8663"
      height="16.402632"
      x="2036.8231"
      y="121.57596"
      id="rect3213-8_5_"
      width="16.43059"
    />
    <polygon
      fill="#b8af82"
      transform="matrix(13.888917,0,0,13.888764,115.49955,58.937696)"
      id="polygon3215-9_5_"
      points="137.779,3.954 137.779,6.25 138.335,5.69 138.335,4.514 "
    />
    <polygon
      fill="#80795b"
      transform="matrix(13.888917,0,0,13.888764,115.49955,58.937696)"
      id="polygon3217-7_5_"
      points="140.076,3.954 139.519,4.514 138.335,4.514 137.779,3.954 "
    />
    <polygon
      fill="#5e5b43"
      transform="matrix(13.888917,0,0,13.888764,115.49955,58.937696)"
      id="polygon3219-2_5_"
      points="140.076,6.25 139.519,5.69 139.519,4.514 140.076,3.954 "
    />
    <polygon
      fill="#9a916c"
      transform="matrix(13.888917,0,0,13.888764,115.49955,58.937696)"
      id="polygon25_5_"
      points="137.779,6.25 138.335,5.69 139.519,5.69 140.076,6.25 "
    />
    <rect
      stroke-width="13.88884068"
      fill="#8c8663"
      height="16.416521"
      x="2036.8231"
      y="221.40839"
      id="rect3223-82_5_"
      width="16.43059"
    />
    <polygon
      fill="#b8af82"
      transform="matrix(13.888917,0,0,13.888764,115.49955,58.937696)"
      id="polygon3225-89_5_"
      points="137.779,11.143 137.779,13.437 138.335,12.878 138.335,11.701 "
    />
    <polygon
      fill="#80795b"
      transform="matrix(13.888917,0,0,13.888764,115.49955,58.937696)"
      id="polygon3227-07_5_"
      points="140.076,11.143 139.519,11.701 138.335,11.701 137.779,11.143 "
    />
    <polygon
      fill="#5e5b43"
      transform="matrix(13.888917,0,0,13.888764,115.49955,58.937696)"
      id="polygon3229-8_5_"
      points="140.076,13.437 139.519,12.878 139.519,11.701 140.076,11.143 "
    />
    <polygon
      fill="#9a916c"
      transform="matrix(13.888917,0,0,13.888764,115.49955,58.937696)"
      id="dnc24_5_"
      points="139.519,12.878 140.076,13.437 137.779,13.437 138.335,12.878 "
    />
    <polygon
      fill="#404040"
      transform="matrix(13.888917,0,0,13.888764,115.49955,58.937696)"
      id="polygon3153-8_4_"
      points="149.726,10.406 149.726,7.07 149.726,3.143 148.162,1.634 144.091,1.634 142.527,3.143 142.527,7.07 142.527,10.406 142.527,14.334 144.091,15.842 148.162,15.842 149.726,14.334 "
    />
    <polygon
      fill="#404040"
      transform="matrix(13.888917,0,0,13.888764,115.49955,58.937696)"
      id="polygon3159-0_4_"
      points="149.726,10.406 149.726,7.07 149.726,3.143 148.162,1.634 144.091,1.634 142.527,3.143 142.527,7.07 142.527,10.406 142.527,14.334 144.091,15.842 148.162,15.842 149.726,14.334 "
    />
    <rect
      stroke-width="13.88884068"
      fill="#8c8663"
      height="16.402632"
      x="2136.8511"
      y="121.57596"
      id="rect3213-8_4_"
      width="16.43059"
    />
    <polygon
      fill="#b8af82"
      transform="matrix(13.888917,0,0,13.888764,115.49955,58.937696)"
      id="polygon3215-9_4_"
      points="144.978,3.954 144.978,6.25 145.537,5.69 145.537,4.514 "
    />
    <polygon
      fill="#80795b"
      transform="matrix(13.888917,0,0,13.888764,115.49955,58.937696)"
      id="polygon3217-7_4_"
      points="147.275,3.954 146.72,4.514 145.537,4.514 144.978,3.954 "
    />
    <polygon
      fill="#5e5b43"
      transform="matrix(13.888917,0,0,13.888764,115.49955,58.937696)"
      id="polygon3219-2_4_"
      points="147.275,6.25 146.72,5.69 146.72,4.514 147.275,3.954 "
    />
    <polygon
      fill="#9a916c"
      transform="matrix(13.888917,0,0,13.888764,115.49955,58.937696)"
      id="polygon25_4_"
      points="144.978,6.25 145.537,5.69 146.72,5.69 147.275,6.25 "
    />
    <rect
      stroke-width="13.88884068"
      fill="#8c8663"
      height="16.416521"
      x="2136.8511"
      y="221.40839"
      id="rect3223-82_4_"
      width="16.43059"
    />
    <polygon
      fill="#b8af82"
      transform="matrix(13.888917,0,0,13.888764,115.49955,58.937696)"
      id="polygon3225-89_4_"
      points="144.978,11.143 144.978,13.437 145.537,12.878 145.537,11.701 "
    />
    <polygon
      fill="#80795b"
      transform="matrix(13.888917,0,0,13.888764,115.49955,58.937696)"
      id="polygon3227-07_4_"
      points="147.275,11.143 146.72,11.701 145.537,11.701 144.978,11.143 "
    />
    <polygon
      fill="#5e5b43"
      transform="matrix(13.888917,0,0,13.888764,115.49955,58.937696)"
      id="polygon3229-8_4_"
      points="147.275,13.437 146.72,12.878 146.72,11.701 147.275,11.143 "
    />
    <polygon
      fill="#9a916c"
      transform="matrix(13.888917,0,0,13.888764,115.49955,58.937696)"
      id="dnc24_4_"
      points="146.72,12.878 147.275,13.437 144.978,13.437 145.537,12.878 "
    />
    <polygon
      fill="#404040"
      transform="matrix(13.888917,0,0,13.888764,115.49955,58.937696)"
      id="polygon3153-8_3_"
      points="156.927,10.406 156.927,7.07 156.927,3.143 155.363,1.634 151.292,1.634 149.728,3.143 149.728,7.07 149.728,10.406 149.728,14.334 151.292,15.842 155.363,15.842 156.927,14.334 "
    />
    <polygon
      fill="#404040"
      transform="matrix(13.888917,0,0,13.888764,115.49955,58.937696)"
      id="polygon3159-0_3_"
      points="156.927,10.406 156.927,7.07 156.927,3.143 155.363,1.634 151.292,1.634 149.728,3.143 149.728,7.07 149.728,10.406 149.728,14.334 151.292,15.842 155.363,15.842 156.927,14.334 "
    />
    <rect
      stroke-width="13.88884068"
      fill="#8c8663"
      height="16.402632"
      x="2236.8374"
      y="121.57596"
      id="rect3213-8_3_"
      width="16.4167"
    />
    <polygon
      fill="#b8af82"
      transform="matrix(13.888917,0,0,13.888764,115.49955,58.937696)"
      id="polygon3215-9_3_"
      points="152.179,3.954 152.179,6.25 152.736,5.69 152.736,4.514 "
    />
    <polygon
      fill="#80795b"
      transform="matrix(13.888917,0,0,13.888764,115.49955,58.937696)"
      id="polygon3217-7_3_"
      points="154.476,3.954 153.919,4.514 152.736,4.514 152.179,3.954 "
    />
    <polygon
      fill="#5e5b43"
      transform="matrix(13.888917,0,0,13.888764,115.49955,58.937696)"
      id="polygon3219-2_3_"
      points="154.476,6.25 153.919,5.69 153.919,4.514 154.476,3.954 "
    />
    <polygon
      fill="#9a916c"
      transform="matrix(13.888917,0,0,13.888764,115.49955,58.937696)"
      id="polygon25_3_"
      points="152.179,6.25 152.736,5.69 153.919,5.69 154.476,6.25 "
    />
    <rect
      stroke-width="13.88884068"
      fill="#8c8663"
      height="16.416521"
      x="2236.8374"
      y="221.40839"
      id="rect3223-82_3_"
      width="16.4167"
    />
    <polygon
      fill="#b8af82"
      transform="matrix(13.888917,0,0,13.888764,115.49955,58.937696)"
      id="polygon3225-89_3_"
      points="152.179,11.143 152.179,13.437 152.736,12.878 152.736,11.701 "
    />
    <polygon
      fill="#80795b"
      transform="matrix(13.888917,0,0,13.888764,115.49955,58.937696)"
      id="polygon3227-07_3_"
      points="154.476,11.143 153.919,11.701 152.736,11.701 152.179,11.143 "
    />
    <polygon
      fill="#5e5b43"
      transform="matrix(13.888917,0,0,13.888764,115.49955,58.937696)"
      id="polygon3229-8_3_"
      points="154.476,13.437 153.919,12.878 153.919,11.701 154.476,11.143 "
    />
    <polygon
      fill="#9a916c"
      transform="matrix(13.888917,0,0,13.888764,115.49955,58.937696)"
      id="dnc24_3_"
      points="153.919,12.878 154.476,13.437 152.179,13.437 152.736,12.878 "
    />
    <polygon
      fill="#404040"
      transform="matrix(13.888917,0,0,13.888764,115.49955,58.937696)"
      id="polygon3153-8_1_"
      points="164.126,10.406 164.126,7.07 164.126,3.143 162.562,1.634 158.492,1.634 156.927,3.143 156.927,7.07 156.927,10.406 156.927,14.334 158.492,15.842 162.562,15.842 164.126,14.334 "
    />
    <polygon
      fill="#404040"
      transform="matrix(13.888917,0,0,13.888764,115.49955,58.937696)"
      id="polygon3159-0_1_"
      points="164.126,10.406 164.126,7.07 164.126,3.143 162.562,1.634 158.492,1.634 156.927,3.143 156.927,7.07 156.927,10.406 156.927,14.334 158.492,15.842 162.562,15.842 164.126,14.334 "
    />
    <rect
      stroke-width="13.88884068"
      fill="#8c8663"
      height="16.402632"
      x="2336.8516"
      y="121.57596"
      id="rect3213-8_1_"
      width="16.4167"
    />
    <polygon
      fill="#b8af82"
      transform="matrix(13.888917,0,0,13.888764,115.49955,58.937696)"
      id="polygon3215-9_1_"
      points="159.378,3.954 159.378,6.25 159.937,5.69 159.937,4.514 "
    />
    <polygon
      fill="#80795b"
      transform="matrix(13.888917,0,0,13.888764,115.49955,58.937696)"
      id="polygon3217-7_1_"
      points="161.675,3.954 161.121,4.514 159.937,4.514 159.378,3.954 "
    />
    <polygon
      fill="#5e5b43"
      transform="matrix(13.888917,0,0,13.888764,115.49955,58.937696)"
      id="polygon3219-2_1_"
      points="161.675,6.25 161.121,5.69 161.121,4.514 161.675,3.954 "
    />
    <polygon
      fill="#9a916c"
      transform="matrix(13.888917,0,0,13.888764,115.49955,58.937696)"
      id="polygon25_1_"
      points="159.378,6.25 159.937,5.69 161.121,5.69 161.675,6.25 "
    />
    <rect
      stroke-width="13.88884068"
      fill="#8c8663"
      height="16.416521"
      x="2336.8516"
      y="221.40839"
      id="rect3223-82_1_"
      width="16.4167"
    />
    <polygon
      fill="#b8af82"
      transform="matrix(13.888917,0,0,13.888764,115.49955,58.937696)"
      id="polygon3225-89_1_"
      points="159.378,11.143 159.378,13.437 159.937,12.878 159.937,11.701 "
    />
    <polygon
      fill="#80795b"
      transform="matrix(13.888917,0,0,13.888764,115.49955,58.937696)"
      id="polygon3227-07_1_"
      points="161.675,11.143 161.121,11.701 159.937,11.701 159.378,11.143 "
    />
    <polygon
      fill="#5e5b43"
      transform="matrix(13.888917,0,0,13.888764,115.49955,58.937696)"
      id="polygon3229-8_1_"
      points="161.675,13.437 161.121,12.878 161.121,11.701 161.675,11.143 "
    />
    <polygon
      fill="#9a916c"
      transform="matrix(13.888917,0,0,13.888764,115.49955,58.937696)"
      id="dnc24_1_"
      points="161.121,12.878 161.675,13.437 159.378,13.437 159.937,12.878 "
    />
    <text
      fill="#ffffff"
      font-family="OCRA"
      font-size="35"
      id="text3685"
      y="138.71043"
      x="59.678345">Raspberry PI</text>
    <text
      fill="#ffffff"
      font-family="OCRA"
      font-size="35"
      id="text259"
      y="190.79335"
      x="59.677032">40 pin GPIO</text>
    <text
      fill="#ffffff"
      font-family="OCRA"
      font-size="35"
      x="59.674194"
      y="241.9613"
      id="text261">connector</text>
    <text
      fill="#ffffff"
      font-family="OCRA"
      x="421.91791"
      y="72.569702"
      font-size="25"
      id="text265">5V</text>
    <text
      fill="#ffffff"
      font-family="OCRA"
      font-size="25"
      id="text267"
      y="72.569702"
      x="521.13489">5V</text>
    <text
      fill="#ffffff"
      font-family="OCRA"
      x="612.41449"
      y="72.569702"
      font-size="25"
      id="text269">GND</text>
    <text
      fill="#ffffff"
      font-family="OCRA"
      font-size="25"
      id="text271"
      y="72.528961"
      x="704.85217">IO14</text>
    <text
      fill="#ffffff"
      font-family="OCRA"
      font-size="25"
      x="804.12134"
      y="72.528961"
      id="text273">IO15</text>
    <text
      fill="#ffffff"
      font-family="OCRA"
      id="text275"
      font-size="25"
      y="72.528961"
      x="903.3905">IO18</text>
    <text
      fill="#ffffff"
      font-family="OCRA"
      font-size="25.19731331"
      id="text277"
      y="72.569702"
      x="1009.2823">GND</text>
    <text
      fill="#ffffff"
      font-family="OCRA"
      font-size="25"
      x="1306.9332"
      y="72.569702"
      id="text279">GND</text>
    <text
      fill="#ffffff"
      font-family="OCRA"
      font-size="25"
      x="1101.9287"
      y="72.528961"
      id="text281">IO23</text>
    <text
      fill="#ffffff"
      font-family="OCRA"
      font-size="25"
      id="text283"
      y="72.528961"
      x="1201.198">IO24</text>
    <text
      fill="#ffffff"
      font-family="OCRA"
      font-size="25"
      x="1399.7362"
      y="72.528961"
      id="text285">IO25</text>
    <text
      fill="#ffffff"
      font-family="OCRA"
      font-size="25"
      id="text287"
      y="72.569702"
      x="1505.3672">IO8</text>
    <text
      fill="#ffffff"
      font-family="OCRA"
      font-size="25"
      x="1604.5841"
      y="72.569702"
      id="text289">IO7</text>
    <text
      fill="#ffffff"
      font-family="OCRA"
      font-size="25.19731331"
      id="text291"
      y="72.569702"
      x="1703.801">IO1</text>
    <text
      fill="#ffffff"
      font-family="OCRA"
      font-size="25.19731331"
      id="text293"
      y="72.569702"
      x="1803.0181">GND</text>
    <text
      fill="#ffffff"
      font-family="OCRA"
      font-size="25"
      id="text299"
      y="72.528961"
      x="1896.082">IO12</text>
    <text
      fill="#ffffff"
      font-family="OCRA"
      font-size="25"
      x="2001.4519"
      y="72.569702"
      id="text301">GND</text>
    <text
      fill="#ffffff"
      font-family="OCRA"
      font-size="25"
      x="2094.6201"
      y="72.528961"
      id="text303">IO16</text>
    <text
      fill="#ffffff"
      font-family="OCRA"
      font-size="25"
      id="text305"
      y="72.528961"
      x="2207.1758">IO20</text>
    <text
      fill="#ffffff"
      font-family="OCRA"
      font-size="25"
      x="2307.1758"
      y="72.528961"
      id="text307">IO21</text>
    <text
      fill="#ffffff"
      font-family="OCRA"
      font-size="25"
      id="text309"
      y="313.32065"
      x="416.06064">3V3</text>
    <text
      fill="#ffffff"
      font-family="OCRA"
      font-size="25"
      x="515.63403"
      y="313.32065"
      id="text311">IO2</text>
    <text
      fill="#ffffff"
      font-family="OCRA"
      id="text313"
      font-size="25"
      y="313.32065"
      x="615.17517">IO3</text>
    <text
      fill="#ffffff"
      font-family="OCRA"
      x="715.17523"
      y="313.32065"
      font-size="25"
      id="text315">IO4</text>
    <text
      fill="#ffffff"
      font-family="OCRA"
      id="text317"
      font-size="25"
      y="313.32065"
      x="815.17529">GND</text>
    <text
      fill="#ffffff"
      font-family="OCRA"
      x="907.17529"
      y="313.32065"
      font-size="25"
      id="text319">IO17</text>
    <text
      fill="#ffffff"
      font-family="OCRA"
      id="text321"
      font-size="25"
      y="313.32065"
      x="1007.1753">IO27</text>
    <text
      fill="#ffffff"
      font-family="OCRA"
      x="1107.1753"
      y="313.32065"
      font-size="25"
      id="text323">IO22</text>
    <text
      fill="#ffffff"
      font-family="OCRA"
      x="1216.1754"
      y="313.32065"
      font-size="25"
      id="text327">3V3</text>
    <text
      fill="#ffffff"
      font-family="OCRA"
      id="text329"
      font-size="25"
      y="313.32065"
      x="1307.1754">IO10</text>
    <text
      fill="#ffffff"
      font-family="OCRA"
      x="1414.1755"
      y="313.32065"
      font-size="25"
      id="text331">IO9</text>
    <text
      fill="#ffffff"
      font-family="OCRA"
      x="1507.1755"
      y="313.32065"
      font-size="25"
      id="text333">IO11</text>
    <text
      fill="#ffffff"
      font-family="OCRA"
      x="1615.1755"
      y="313.32065"
      font-size="25"
      id="text335">GND</text>
    <text
      fill="#ffffff"
      font-family="OCRA"
      id="text337"
      font-size="25"
      y="313.32065"
      x="1714.1755">IO0</text>
    <text
      fill="#ffffff"
      font-family="OCRA"
      x="1814.1755"
      y="313.32065"
      font-size="25"
      id="text339">IO5</text>
    <text
      fill="#ffffff"
      font-family="OCRA"
      id="text341"
      font-size="25"
      y="313.32065"
      x="1914.1757">IO6</text>
    <text
      fill="#ffffff"
      font-family="OCRA"
      id="text343"
      font-size="25"
      y="313.32065"
      x="2007.1757">IO13</text>
    <text
      fill="#ffffff"
      font-family="OCRA"
      x="2107.1758"
      y="313.32065"
      font-size="25"
      id="text345">IO19</text>
    <text
      fill="#ffffff"
      font-family="OCRA"
      id="text347"
      font-size="25"
      y="313.32065"
      x="2207.1758">IO26</text>
    <text
      fill="#ffffff"
      font-family="OCRA"
      id="text349"
      font-size="25"
      y="313.32065"
      x="2315.1758">GND</text>
    <circle
      stroke-width="0"
      stroke="none"
      fill="#8c8663"
      r="10"
      id="connector0pin"
      cx="444.87524"
      cy="331.01877"
    />
    <circle
      stroke-width="0"
      stroke="none"
      fill="#8c8663"
      r="10"
      id="connector1pin"
      cx="444.87524"
      cy="31.021557"
    />
    <circle
      stroke-width="0"
      stroke="none"
      fill="#8c8663"
      cy="331.01877"
      cx="545.00018"
      id="connector2pin"
      r="10"
    />
    <circle
      stroke-width="0"
      stroke="none"
      fill="#8c8663"
      cy="31.021557"
      cx="545.00018"
      id="connector3pin"
      r="10"
    />
    <circle
      stroke-width="0"
      stroke="none"
      fill="#8c8663"
      r="10"
      id="connector4pin"
      cx="645.00018"
      cy="331.01877"
    />
    <circle
      stroke-width="0"
      stroke="none"
      fill="#8c8663"
      r="10"
      id="connector5pin"
      cx="645.00018"
      cy="31.021557"
    />
    <circle
      stroke-width="0"
      stroke="none"
      fill="#8c8663"
      cy="331.01877"
      cx="745.00024"
      id="connector6pin"
      r="10"
    />
    <circle
      stroke-width="0"
      stroke="none"
      fill="#8c8663"
      cy="31.021557"
      cx="745.00024"
      id="connector7pin"
      r="10"
    />
    <circle
      stroke-width="0"
      stroke="none"
      fill="#8c8663"
      r="10"
      id="connector8pin"
      cx="845.00024"
      cy="331.01877"
    />
    <circle
      stroke-width="0"
      stroke="none"
      fill="#8c8663"
      r="10"
      id="connector9pin"
      cx="845.00024"
      cy="31.021557"
    />
    <circle
      stroke-width="0"
      stroke="none"
      fill="#8c8663"
      cy="331.01877"
      cx="945.00031"
      id="connector10pin"
      r="10"
    />
    <circle
      cy="31.021557"
      cx="945.00031"
      id="connector11pin"
      r="10"
      fill="#8c8663"
      stroke="none"
      stroke-width="0"
    />
    <circle
      stroke-width="0"
      stroke="none"
      fill="#8c8663"
      r="10"
      id="connector12pin"
      cx="1045.0002"
      cy="331.01877"
    />
    <circle
      stroke-width="0"
      stroke="none"
      fill="#8c8663"
      r="10"
      id="connector13pin"
      cx="1045.0002"
      cy="31.021557"
    />
    <circle
      stroke-width="0"
      stroke="none"
      fill="#8c8663"
      cy="331.01877"
      cx="1145.0004"
      id="connector14pin"
      r="10"
    />
    <circle
      stroke-width="0"
      stroke="none"
      fill="#8c8663"
      cy="31.021557"
      cx="1145.0004"
      id="connector15pin"
      r="10"
    />
    <circle
      stroke-width="0"
      stroke="none"
      fill="#8c8663"
      r="10"
      id="connector16pin"
      cx="1245.0004"
      cy="331.01877"
    />
    <circle
      stroke-width="0"
      stroke="none"
      fill="#8c8663"
      r="10"
      id="connector17pin"
      cx="1245.0004"
      cy="31.021557"
    />
    <circle
      stroke-width="0"
      stroke="none"
      fill="#8c8663"
      cy="331.01877"
      cx="1345.0005"
      id="connector18pin"
      r="10"
    />
    <circle
      stroke-width="0"
      stroke="none"
      fill="#8c8663"
      cy="31.021557"
      cx="1345.0005"
      id="connector19pin"
      r="10"
    />
    <circle
      stroke-width="0"
      stroke="none"
      fill="#8c8663"
      r="10"
      id="connector20pin"
      cx="1445.0005"
      cy="331.01877"
    />
    <circle
      stroke-width="0"
      stroke="none"
      fill="#8c8663"
      r="10"
      id="connector21pin"
      cx="1445.0005"
      cy="31.021557"
    />
    <circle
      stroke-width="0"
      stroke="none"
      fill="#8c8663"
      cy="331.01877"
      cx="1545.0005"
      id="connector22pin"
      r="10"
    />
    <circle
      stroke-width="0"
      stroke="none"
      fill="#8c8663"
      cy="31.021557"
      cx="1545.0005"
      id="connector23pin"
      r="10"
    />
    <circle
      stroke-width="0"
      stroke="none"
      fill="#8c8663"
      r="10"
      id="connector24pin"
      cx="1645.0005"
      cy="331.01877"
    />
    <circle
      stroke-width="0"
      stroke="none"
      fill="#8c8663"
      r="10"
      id="connector25pin"
      cx="1645.0005"
      cy="31.021557"
    />
    <circle
      stroke-width="0"
      stroke="none"
      fill="#8c8663"
      cy="331.01877"
      cx="1745.0006"
      id="connector26pin"
      r="10"
    />
    <circle
      stroke-width="0"
      stroke="none"
      fill="#8c8663"
      cy="31.021557"
      cx="1745.0006"
      id="connector27pin"
      r="10"
    />
    <circle
      stroke-width="0"
      stroke="none"
      fill="#8c8663"
      r="10"
      id="connector28pin"
      cx="1845.0006"
      cy="331.01877"
    />
    <circle
      stroke-width="0"
      stroke="none"
      fill="#8c8663"
      r="10"
      id="connector29pin"
      cx="1845.0006"
      cy="31.021557"
    />
    <circle
      stroke-width="0"
      stroke="none"
      fill="#8c8663"
      cy="331.01877"
      cx="1945.0006"
      id="connector30pin"
      r="10"
    />
    <circle
      stroke-width="0"
      stroke="none"
      fill="#8c8663"
      cy="31.021557"
      cx="1945.0006"
      id="connector31pin"
      r="10"
    />
    <circle
      stroke-width="0"
      stroke="none"
      fill="#8c8663"
      r="10"
      id="connector32pin"
      cx="2045.0006"
      cy="331.01877"
    />
    <circle
      stroke-width="0"
      stroke="none"
      fill="#8c8663"
      r="10"
      id="connector33pin"
      cx="2045.0006"
      cy="31.021557"
    />
    <circle
      stroke-width="0"
      stroke="none"
      fill="#8c8663"
      cy="331.01877"
      cx="2145.0007"
      id="connector34pin"
      r="10"
    />
    <circle
      stroke-width="0"
      stroke="none"
      fill="#8c8663"
      cy="31.021557"
      cx="2145.0007"
      id="connector35pin"
      r="10"
    />
    <circle
      stroke-width="0"
      stroke="none"
      fill="#8c8663"
      r="10"
      id="connector36pin"
      cx="2245.0007"
      cy="331.01877"
    />
    <circle
      stroke-width="0"
      stroke="none"
      fill="#8c8663"
      r="10"
      id="connector37pin"
      cx="2245.0007"
      cy="31.021557"
    />
    <circle
      stroke-width="0"
      stroke="none"
      fill="#8c8663"
      cy="331.01877"
      cx="2345.0007"
      id="connector38pin"
      r="10"
    />
    <circle
      stroke-width="0"
      stroke="none"
      fill="#8c8663"
      cy="31.021557"
      cx="2345.0007"
      id="connector39pin"
      r="10"
    />
  </g>
</svg>
