<?xml version='1.0' encoding='UTF-8' standalone='no'?>
<svg
  xmlns:dc="http://purl.org/dc/elements/1.1/"
  xmlns:cc="http://creativecommons.org/ns#"
  xmlns:rdf="http://www.w3.org/1999/02/22-rdf-syntax-ns#"
  xmlns:svg="http://www.w3.org/2000/svg"
  xmlns="http://www.w3.org/2000/svg"
  width="53.340469mm"
  id="Layer_1"
  enable-background="new 0 0 241.818 159.695"
  y="0px"
  x="0px"
  height="6.3150749mm"
  version="1.1"
  viewBox="0 0 2100.0192 248.62508">
  <metadata
    id="metadata52">
    <rdf:RDF>
      <cc:Work
        rdf:about="">
        <dc:format>image/svg+xml</dc:format>
        <dc:type
          rdf:resource="http://purl.org/dc/dcmitype/StillImage"
        />
        <dc:title/>
      </cc:Work>
    </rdf:RDF>
  </metadata>
  <defs
    id="defs50"
  />
  <desc
    id="desc3">
    <referenceFile>RPiHeader40p_1_pcb.svg</referenceFile>
  </desc>
  <g
    id="silkscreen">
    <line
      y1="27.534925"
      y2="227.53499"
      x2="2036.5515"
      x1="2036.5515"
      id="line281"
      stroke="#000000"
      stroke-width="10"
    />
    <line
      id="line279"
      x1="34.550819"
      x2="2034.5516"
      y2="27.999996"
      y1="27.999996"
      stroke="#000000"
      stroke-width="10"
    />
    <line
      y1="227.53499"
      y2="227.53499"
      x2="2035.5516"
      x1="35.550819"
      id="line9"
      stroke="#000000"
      stroke-width="10"
    />
    <line
      y1="27.999996"
      y2="228.00005"
      x2="34.550819"
      x1="34.550819"
      id="line7"
      stroke="#000000"
      stroke-width="10"
    />
    <text
      x="-3.9549999"
      y="186.39291"
      id="text277"
      font-size="35"
      font-family="OCRA"
      fill="#000000"
      stroke-width="1">1</text>
    <text
      font-size="35"
      id="text101"
      y="85.354172"
      x="-3.9549999"
      font-family="OCRA"
      fill="#000000"
      stroke-width="1">2</text>
    <text
      font-size="35"
      id="text105"
      y="186.39291"
      x="2053.3411"
      font-family="OCRA"
      fill="#000000"
      stroke-width="1">39</text>
    <text
      x="2052.7412"
      y="85.354172"
      id="text107"
      font-size="35"
      font-family="OCRA"
      fill="#000000"
      stroke-width="1">40</text>
  </g>
  <g
    id="copper1">
    <g
      id="copper0">
      <path
        d="M 181.28524,144.62504 C 197.68677,144.62504 211.01963,156.22505 211.01963,170.62505 V 222.62507 C 211.01963,237.02507 197.68677,248.62507 181.28524,248.62507 V 248.62507 C 164.88371,248.62507 151.55086,237.02507 151.55086,222.62507 V 169.62505 C 152.16671,155.62505 165.30698,144.62504 181.28524,144.62504 Z"
        id="path191"
        fill="#ffbf00"
        stroke="none"
        stroke-width="0"
      />
      <path
        d="M 81.233128,0.072912 C 97.634657,0.072912 110.96752,11.672939 110.96752,26.072948 V 78.072937 C 110.96752,92.472927 97.634657,104.07293 81.233128,104.07293 V 104.07293 C 64.8316,104.07293 51.498744,92.472927 51.498744,78.072937 V 25.072947 C 52.114596,11.072939 65.254865,0.072912 81.233128,0.072912 Z"
        id="path189"
        fill="#ffbf00"
        stroke="none"
        stroke-width="0"
      />
      <path
        id="path0"
        d="M 81.233128,144.62504 C 97.634657,144.62504 110.96752,156.22505 110.96752,170.62505 V 222.62507 C 110.96752,237.02507 97.634657,248.62507 81.233128,248.62507 V 248.62507 C 64.8316,248.62507 51.498744,237.02507 51.498744,222.62507 V 169.62505 C 52.114596,155.62505 65.254865,144.62504 81.233128,144.62504 Z"
        fill="#ffbf00"
        stroke="none"
        stroke-width="0"
      />
      <path
        id="path193"
        d="M 281.28527,144.62504 C 297.6868,144.62504 311.01966,156.22505 311.01966,170.62505 V 222.62507 C 311.01966,237.02507 297.6868,248.62507 281.28527,248.62507 V 248.62507 C 264.88374,248.62507 251.55089,237.02507 251.55089,222.62507 V 169.62505 C 252.16674,155.62505 265.30701,144.62504 281.28527,144.62504 Z"
        fill="#ffbf00"
        stroke="none"
        stroke-width="0"
      />
      <path
        d="M 381.2853,144.62504 C 397.68683,144.62504 411.01969,156.22505 411.01969,170.62505 V 222.62507 C 411.01969,237.02507 397.68683,248.62507 381.2853,248.62507 V 248.62507 C 364.88377,248.62507 351.55092,237.02507 351.55092,222.62507 V 169.62505 C 352.16677,155.62505 365.30704,144.62504 381.2853,144.62504 Z"
        id="path195"
        fill="#ffbf00"
        stroke="none"
        stroke-width="0"
      />
      <path
        id="path197"
        d="M 481.28534,144.62504 C 497.68687,144.62504 511.01973,156.22505 511.01973,170.62505 V 222.62507 C 511.01973,237.02507 497.68687,248.62507 481.28534,248.62507 V 248.62507 C 464.88381,248.62507 451.55096,237.02507 451.55096,222.62507 V 169.62505 C 452.16681,155.62505 465.30708,144.62504 481.28534,144.62504 Z"
        fill="#ffbf00"
        stroke="none"
        stroke-width="0"
      />
      <path
        d="M 581.28537,144.62504 C 597.6869,144.62504 611.01976,156.22505 611.01976,170.62505 V 222.62507 C 611.01976,237.02507 597.6869,248.62507 581.28537,248.62507 V 248.62507 C 564.88384,248.62507 551.55099,237.02507 551.55099,222.62507 V 169.62505 C 552.16684,155.62505 565.30711,144.62504 581.28537,144.62504 Z"
        id="path199"
        fill="#ffbf00"
        stroke="none"
        stroke-width="0"
      />
      <path
        id="path201"
        d="M 681.2854,144.62504 C 697.68693,144.62504 711.01979,156.22505 711.01979,170.62505 V 222.62507 C 711.01979,237.02507 697.68693,248.62507 681.2854,248.62507 V 248.62507 C 664.88387,248.62507 651.55102,237.02507 651.55102,222.62507 V 169.62505 C 652.16687,155.62505 665.30714,144.62504 681.2854,144.62504 Z"
        fill="#ffbf00"
        stroke="none"
        stroke-width="0"
      />
      <path
        d="M 781.28543,144.62504 C 797.68696,144.62504 811.01982,156.22505 811.01982,170.62505 V 222.62507 C 811.01982,237.02507 797.68696,248.62507 781.28543,248.62507 V 248.62507 C 764.8839,248.62507 751.55105,237.02507 751.55105,222.62507 V 169.62505 C 752.1669,155.62505 765.30717,144.62504 781.28543,144.62504 Z"
        id="path203"
        fill="#ffbf00"
        stroke="none"
        stroke-width="0"
      />
      <path
        id="path205"
        d="M 881.28547,144.62504 C 897.687,144.62504 911.01986,156.22505 911.01986,170.62505 V 222.62507 C 911.01986,237.02507 897.687,248.62507 881.28547,248.62507 V 248.62507 C 864.88394,248.62507 851.55109,237.02507 851.55109,222.62507 V 169.62505 C 852.16694,155.62505 865.30721,144.62504 881.28547,144.62504 Z"
        fill="#ffbf00"
        stroke="none"
        stroke-width="0"
      />
      <path
        d="M 981.2855,144.62504 C 997.68703,144.62504 1011.0199,156.22505 1011.0199,170.62505 V 222.62507 C 1011.0199,237.02507 997.68703,248.62507 981.2855,248.62507 V 248.62507 C 964.88397,248.62507 951.55112,237.02507 951.55112,222.62507 V 169.62505 C 952.16697,155.62505 965.30724,144.62504 981.2855,144.62504 Z"
        id="path207"
        fill="#ffbf00"
        stroke="none"
        stroke-width="0"
      />
      <path
        id="path209"
        d="M 1081.2855,144.62504 C 1097.687,144.62504 1111.0199,156.22505 1111.0199,170.62505 V 222.62507 C 1111.0199,237.02507 1097.687,248.62507 1081.2855,248.62507 V 248.62507 C 1064.884,248.62507 1051.5511,237.02507 1051.5511,222.62507 V 169.62505 C 1052.167,155.62505 1065.3073,144.62504 1081.2855,144.62504 Z"
        fill="#ffbf00"
        stroke="none"
        stroke-width="0"
      />
      <path
        d="M 1181.2856,144.62504 C 1197.6871,144.62504 1211.02,156.22505 1211.02,170.62505 V 222.62507 C 1211.02,237.02507 1197.6871,248.62507 1181.2856,248.62507 V 248.62507 C 1164.8841,248.62507 1151.5512,237.02507 1151.5512,222.62507 V 169.62505 C 1152.1671,155.62505 1165.3074,144.62504 1181.2856,144.62504 Z"
        id="path211"
        fill="#ffbf00"
        stroke="none"
        stroke-width="0"
      />
      <path
        id="path213"
        d="M 1281.2856,144.62504 C 1297.6871,144.62504 1311.02,156.22505 1311.02,170.62505 V 222.62507 C 1311.02,237.02507 1297.6871,248.62507 1281.2856,248.62507 V 248.62507 C 1264.8841,248.62507 1251.5512,237.02507 1251.5512,222.62507 V 169.62505 C 1252.1671,155.62505 1265.3074,144.62504 1281.2856,144.62504 Z"
        fill="#ffbf00"
        stroke="none"
        stroke-width="0"
      />
      <path
        d="M 1381.2856,144.62504 C 1397.6871,144.62504 1411.02,156.22505 1411.02,170.62505 V 222.62507 C 1411.02,237.02507 1397.6871,248.62507 1381.2856,248.62507 V 248.62507 C 1364.8841,248.62507 1351.5512,237.02507 1351.5512,222.62507 V 169.62505 C 1352.1671,155.62505 1365.3074,144.62504 1381.2856,144.62504 Z"
        id="path215"
        fill="#ffbf00"
        stroke="none"
        stroke-width="0"
      />
      <path
        id="path217"
        d="M 1481.2857,144.62504 C 1497.6872,144.62504 1511.0201,156.22505 1511.0201,170.62505 V 222.62507 C 1511.0201,237.02507 1497.6872,248.62507 1481.2857,248.62507 V 248.62507 C 1464.8842,248.62507 1451.5513,237.02507 1451.5513,222.62507 V 169.62505 C 1452.1672,155.62505 1465.3075,144.62504 1481.2857,144.62504 Z"
        fill="#ffbf00"
        stroke="none"
        stroke-width="0"
      />
      <path
        d="M 1581.2857,144.62504 C 1597.6872,144.62504 1611.0201,156.22505 1611.0201,170.62505 V 222.62507 C 1611.0201,237.02507 1597.6872,248.62507 1581.2857,248.62507 V 248.62507 C 1564.8842,248.62507 1551.5513,237.02507 1551.5513,222.62507 V 169.62505 C 1552.1672,155.62505 1565.3075,144.62504 1581.2857,144.62504 Z"
        id="path219"
        fill="#ffbf00"
        stroke="none"
        stroke-width="0"
      />
      <path
        id="path221"
        d="M 1681.2857,144.62504 C 1697.6872,144.62504 1711.0201,156.22505 1711.0201,170.62505 V 222.62507 C 1711.0201,237.02507 1697.6872,248.62507 1681.2857,248.62507 V 248.62507 C 1664.8842,248.62507 1651.5513,237.02507 1651.5513,222.62507 V 169.62505 C 1652.1672,155.62505 1665.3075,144.62504 1681.2857,144.62504 Z"
        fill="#ffbf00"
        stroke="none"
        stroke-width="0"
      />
      <path
        d="M 1781.2858,144.62504 C 1797.6873,144.62504 1811.0202,156.22505 1811.0202,170.62505 V 222.62507 C 1811.0202,237.02507 1797.6873,248.62507 1781.2858,248.62507 V 248.62507 C 1764.8843,248.62507 1751.5514,237.02507 1751.5514,222.62507 V 169.62505 C 1752.1673,155.62505 1765.3076,144.62504 1781.2858,144.62504 Z"
        id="path223"
        fill="#ffbf00"
        stroke="none"
        stroke-width="0"
      />
      <path
        id="path225"
        d="M 1881.2858,144.62504 C 1897.6873,144.62504 1911.0202,156.22505 1911.0202,170.62505 V 222.62507 C 1911.0202,237.02507 1897.6873,248.62507 1881.2858,248.62507 V 248.62507 C 1864.8843,248.62507 1851.5514,237.02507 1851.5514,222.62507 V 169.62505 C 1852.1673,155.62505 1865.3076,144.62504 1881.2858,144.62504 Z"
        fill="#ffbf00"
        stroke="none"
        stroke-width="0"
      />
      <path
        d="M 1981.2858,144.62504 C 1997.6873,144.62504 2011.0202,156.22505 2011.0202,170.62505 V 222.62507 C 2011.0202,237.02507 1997.6873,248.62507 1981.2858,248.62507 V 248.62507 C 1964.8843,248.62507 1951.5514,237.02507 1951.5514,222.62507 V 169.62505 C 1952.1673,155.62505 1965.3076,144.62504 1981.2858,144.62504 Z"
        id="path227"
        fill="#ffbf00"
        stroke="none"
        stroke-width="0"
      />
      <path
        id="path229"
        d="M 181.28524,0.072912 C 197.68677,0.072912 211.01963,11.672939 211.01963,26.072948 V 78.072937 C 211.01963,92.472927 197.68677,104.07293 181.28524,104.07293 V 104.07293 C 164.88371,104.07293 151.55086,92.472927 151.55086,78.072937 V 25.072947 C 152.16671,11.072939 165.30698,0.072912 181.28524,0.072912 Z"
        fill="#ffbf00"
        stroke="none"
        stroke-width="0"
      />
      <path
        d="M 281.28527,0.072912 C 297.6868,0.072912 311.01966,11.672939 311.01966,26.072948 V 78.072937 C 311.01966,92.472927 297.6868,104.07293 281.28527,104.07293 V 104.07293 C 264.88374,104.07293 251.55089,92.472927 251.55089,78.072937 V 25.072947 C 252.16674,11.072939 265.30701,0.072912 281.28527,0.072912 Z"
        id="path231"
        fill="#ffbf00"
        stroke="none"
        stroke-width="0"
      />
      <path
        id="path233"
        d="M 381.2853,0.072912 C 397.68683,0.072912 411.01969,11.672939 411.01969,26.072948 V 78.072937 C 411.01969,92.472927 397.68683,104.07293 381.2853,104.07293 V 104.07293 C 364.88377,104.07293 351.55092,92.472927 351.55092,78.072937 V 25.072947 C 352.16677,11.072939 365.30704,0.072912 381.2853,0.072912 Z"
        fill="#ffbf00"
        stroke="none"
        stroke-width="0"
      />
      <path
        d="M 481.28534,0.072912 C 497.68687,0.072912 511.01973,11.672939 511.01973,26.072948 V 78.072937 C 511.01973,92.472927 497.68687,104.07293 481.28534,104.07293 V 104.07293 C 464.88381,104.07293 451.55096,92.472927 451.55096,78.072937 V 25.072947 C 452.16681,11.072939 465.30708,0.072912 481.28534,0.072912 Z"
        id="path235"
        fill="#ffbf00"
        stroke="none"
        stroke-width="0"
      />
      <path
        id="path237"
        d="M 581.28537,0.072912 C 597.6869,0.072912 611.01976,11.672939 611.01976,26.072948 V 78.072937 C 611.01976,92.472927 597.6869,104.07293 581.28537,104.07293 V 104.07293 C 564.88384,104.07293 551.55099,92.472927 551.55099,78.072937 V 25.072947 C 552.16684,11.072939 565.30711,0.072912 581.28537,0.072912 Z"
        fill="#ffbf00"
        stroke="none"
        stroke-width="0"
      />
      <path
        d="M 681.2854,0.072912 C 697.68693,0.072912 711.01979,11.672939 711.01979,26.072948 V 78.072937 C 711.01979,92.472927 697.68693,104.07293 681.2854,104.07293 V 104.07293 C 664.88387,104.07293 651.55102,92.472927 651.55102,78.072937 V 25.072947 C 652.16687,11.072939 665.30714,0.072912 681.2854,0.072912 Z"
        id="path239"
        fill="#ffbf00"
        stroke="none"
        stroke-width="0"
      />
      <path
        id="path241"
        d="M 781.28543,0 C 797.68696,0 811.01982,11.60002 811.01982,26.00003 V 78.000021 C 811.01982,92.400011 797.68696,104.00002 781.28543,104.00002 V 104.00002 C 764.8839,104.00002 751.55105,92.400011 751.55105,78.000021 V 25.00003 C 752.1669,11.00002 765.30717,0 781.28543,0 Z"
        fill="#ffbf00"
        stroke="none"
        stroke-width="0"
      />
      <path
        d="M 881.28547,0 C 897.687,0 911.01986,11.60002 911.01986,26.00003 V 78.000021 C 911.01986,92.400011 897.687,104.00002 881.28547,104.00002 V 104.00002 C 864.88394,104.00002 851.55109,92.400011 851.55109,78.000021 V 25.00003 C 852.16694,11.00002 865.30721,0 881.28547,0 Z"
        id="path243"
        fill="#ffbf00"
        stroke="none"
        stroke-width="0"
      />
      <path
        id="path245"
        d="M 981.2855,0 C 997.68703,0 1011.0199,11.60002 1011.0199,26.00003 V 78.000021 C 1011.0199,92.400011 997.68703,104.00002 981.2855,104.00002 V 104.00002 C 964.88397,104.00002 951.55112,92.400011 951.55112,78.000021 V 25.00003 C 952.16697,11.00002 965.30724,0 981.2855,0 Z"
        fill="#ffbf00"
        stroke="none"
        stroke-width="0"
      />
      <path
        d="M 1081.2855,0 C 1097.687,0 1111.0199,11.60002 1111.0199,26.00003 V 78.000021 C 1111.0199,92.400011 1097.687,104.00002 1081.2855,104.00002 V 104.00002 C 1064.884,104.00002 1051.5511,92.400011 1051.5511,78.000021 V 25.00003 C 1052.167,11.00002 1065.3073,0 1081.2855,0 Z"
        id="path247"
        fill="#ffbf00"
        stroke="none"
        stroke-width="0"
      />
      <path
        id="path249"
        d="M 1181.2856,0 C 1197.6871,0 1211.02,11.60002 1211.02,26.00003 V 78.000021 C 1211.02,92.400011 1197.6871,104.00002 1181.2856,104.00002 V 104.00002 C 1164.8841,104.00002 1151.5512,92.400011 1151.5512,78.000021 V 25.00003 C 1152.1671,11.00002 1165.3074,0 1181.2856,0 Z"
        fill="#ffbf00"
        stroke="none"
        stroke-width="0"
      />
      <path
        d="M 1281.2856,0 C 1297.6871,0 1311.02,11.60002 1311.02,26.00003 V 78.000021 C 1311.02,92.400011 1297.6871,104.00002 1281.2856,104.00002 V 104.00002 C 1264.8841,104.00002 1251.5512,92.400011 1251.5512,78.000021 V 25.00003 C 1252.1671,11.00002 1265.3074,0 1281.2856,0 Z"
        id="path251"
        fill="#ffbf00"
        stroke="none"
        stroke-width="0"
      />
      <path
        id="path253"
        d="M 1381.2856,0 C 1397.6871,0 1411.02,11.60002 1411.02,26.00003 V 78.000021 C 1411.02,92.400011 1397.6871,104.00002 1381.2856,104.00002 V 104.00002 C 1364.8841,104.00002 1351.5512,92.400011 1351.5512,78.000021 V 25.00003 C 1352.1671,11.00002 1365.3074,0 1381.2856,0 Z"
        fill="#ffbf00"
        stroke="none"
        stroke-width="0"
      />
      <path
        d="M 1481.2857,0 C 1497.6872,0 1511.0201,11.60002 1511.0201,26.00003 V 78.000021 C 1511.0201,92.400011 1497.6872,104.00002 1481.2857,104.00002 V 104.00002 C 1464.8842,104.00002 1451.5513,92.400011 1451.5513,78.000021 V 25.00003 C 1452.1672,11.00002 1465.3075,0 1481.2857,0 Z"
        id="path255"
        fill="#ffbf00"
        stroke="none"
        stroke-width="0"
      />
      <path
        id="path257"
        d="M 1581.2857,0 C 1597.6872,0 1611.0201,11.60002 1611.0201,26.00003 V 78.000021 C 1611.0201,92.400011 1597.6872,104.00002 1581.2857,104.00002 V 104.00002 C 1564.8842,104.00002 1551.5513,92.400011 1551.5513,78.000021 V 25.00003 C 1552.1672,11.00002 1565.3075,0 1581.2857,0 Z"
        fill="#ffbf00"
        stroke="none"
        stroke-width="0"
      />
      <path
        d="M 1681.2857,0 C 1697.6872,0 1711.0201,11.60002 1711.0201,26.00003 V 78.000021 C 1711.0201,92.400011 1697.6872,104.00002 1681.2857,104.00002 V 104.00002 C 1664.8842,104.00002 1651.5513,92.400011 1651.5513,78.000021 V 25.00003 C 1652.1672,11.00002 1665.3075,0 1681.2857,0 Z"
        id="path259"
        fill="#ffbf00"
        stroke="none"
        stroke-width="0"
      />
      <path
        id="path261"
        d="M 1781.2858,0 C 1797.6873,0 1811.0202,11.60002 1811.0202,26.00003 V 78.000021 C 1811.0202,92.400011 1797.6873,104.00002 1781.2858,104.00002 V 104.00002 C 1764.8843,104.00002 1751.5514,92.400011 1751.5514,78.000021 V 25.00003 C 1752.1673,11.00002 1765.3076,0 1781.2858,0 Z"
        fill="#ffbf00"
        stroke="none"
        stroke-width="0"
      />
      <path
        d="M 1881.2858,0 C 1897.6873,0 1911.0202,11.60002 1911.0202,26.00003 V 78.000021 C 1911.0202,92.400011 1897.6873,104.00002 1881.2858,104.00002 V 104.00002 C 1864.8843,104.00002 1851.5514,92.400011 1851.5514,78.000021 V 25.00003 C 1852.1673,11.00002 1865.3076,0 1881.2858,0 Z"
        id="path263"
        fill="#ffbf00"
        stroke="none"
        stroke-width="0"
      />
      <path
        id="path265"
        d="M 1981.2858,0 C 1997.6873,0 2011.0202,11.60002 2011.0202,26.00003 V 78.000021 C 2011.0202,92.400011 1997.6873,104.00002 1981.2858,104.00002 V 104.00002 C 1964.8843,104.00002 1951.5514,92.400011 1951.5514,78.000021 V 25.00003 C 1952.1673,11.00002 1965.3076,0 1981.2858,0 Z"
        fill="#ffbf00"
        stroke="none"
        stroke-width="0"
      />
      <circle
        r="24"
        id="connector0pin"
        cx="81.231308"
        cy="174.32016"
        fill="#ffffff"
        stroke="#ffbf00"
        stroke-width="10"
      />
      <circle
        r="24"
        id="connector1pin"
        cx="81.231308"
        cy="74.336098"
        fill="#ffffff"
        stroke="#ffbf00"
        stroke-width="10"
      />
      <circle
        r="24"
        id="connector2pin"
        cx="181.21747"
        cy="174.32016"
        fill="#ffffff"
        stroke="#ffbf00"
        stroke-width="10"
      />
      <circle
        r="24"
        id="connector3pin"
        cx="181.21747"
        cy="74.336098"
        fill="#ffffff"
        stroke="#ffbf00"
        stroke-width="10"
      />
      <circle
        r="24"
        id="connector4pin"
        cx="281.23141"
        cy="174.32016"
        fill="#ffffff"
        stroke="#ffbf00"
        stroke-width="10"
      />
      <circle
        r="24"
        id="connector5pin"
        cx="281.23141"
        cy="74.336098"
        fill="#ffffff"
        stroke="#ffbf00"
        stroke-width="10"
      />
      <circle
        r="24"
        id="connector6pin"
        cx="381.21762"
        cy="174.32016"
        fill="#ffffff"
        stroke="#ffbf00"
        stroke-width="10"
      />
      <circle
        r="24"
        id="connector7pin"
        cx="381.21762"
        cy="74.336098"
        fill="#ffffff"
        stroke="#ffbf00"
        stroke-width="10"
      />
      <circle
        r="24"
        id="connector8pin"
        cx="481.23157"
        cy="174.32016"
        fill="#ffffff"
        stroke="#ffbf00"
        stroke-width="10"
      />
      <circle
        r="24"
        id="connector9pin"
        cx="481.23157"
        cy="74.336098"
        fill="#ffffff"
        stroke="#ffbf00"
        stroke-width="10"
      />
      <circle
        r="24"
        id="connector10pin"
        cx="581.23151"
        cy="174.32016"
        fill="#ffffff"
        stroke="#ffbf00"
        stroke-width="10"
      />
      <circle
        r="24"
        id="connector11pin"
        cx="581.23151"
        cy="74.336098"
        fill="#ffffff"
        stroke="#ffbf00"
        stroke-width="10"
      />
      <circle
        r="24"
        id="connector12pin"
        cx="681.21771"
        cy="174.32016"
        fill="#ffffff"
        stroke="#ffbf00"
        stroke-width="10"
      />
      <circle
        r="24"
        id="connector13pin"
        cx="681.21771"
        cy="74.336098"
        fill="#ffffff"
        stroke="#ffbf00"
        stroke-width="10"
      />
      <circle
        r="24"
        id="connector14pin"
        cx="781.23157"
        cy="174.32016"
        fill="#ffffff"
        stroke="#ffbf00"
        stroke-width="10"
      />
      <circle
        r="24"
        id="connector15pin"
        cx="781.23157"
        cy="74.336098"
        fill="#ffffff"
        stroke="#ffbf00"
        stroke-width="10"
      />
      <circle
        r="24"
        id="connector16pin"
        cx="881.21771"
        cy="174.32016"
        fill="#ffffff"
        stroke="#ffbf00"
        stroke-width="10"
      />
      <circle
        r="24"
        id="connector17pin"
        cx="881.21771"
        cy="74.336098"
        fill="#ffffff"
        stroke="#ffbf00"
        stroke-width="10"
      />
      <circle
        r="24"
        id="connector18pin"
        cx="981.23169"
        cy="174.32016"
        fill="#ffffff"
        stroke="#ffbf00"
        stroke-width="10"
      />
      <circle
        r="24"
        id="connector19pin"
        cx="981.23169"
        cy="74.336098"
        fill="#ffffff"
        stroke="#ffbf00"
        stroke-width="10"
      />
      <circle
        r="24"
        id="connector20pin"
        cx="1081.2318"
        cy="174.32016"
        fill="#ffffff"
        stroke="#ffbf00"
        stroke-width="10"
      />
      <circle
        r="24"
        id="connector21pin"
        cx="1081.2318"
        cy="74.336098"
        fill="#ffffff"
        stroke="#ffbf00"
        stroke-width="10"
      />
      <circle
        r="24"
        id="connector22pin"
        cx="1181.2319"
        cy="174.32016"
        fill="#ffffff"
        stroke="#ffbf00"
        stroke-width="10"
      />
      <circle
        r="24"
        id="connector23pin"
        cx="1181.2319"
        cy="74.336098"
        fill="#ffffff"
        stroke="#ffbf00"
        stroke-width="10"
      />
      <circle
        r="24"
        id="connector24pin"
        cx="1281.2319"
        cy="174.32016"
        fill="#ffffff"
        stroke="#ffbf00"
        stroke-width="10"
      />
      <circle
        r="24"
        id="connector25pin"
        cx="1281.2319"
        cy="74.336098"
        fill="#ffffff"
        stroke="#ffbf00"
        stroke-width="10"
      />
      <circle
        r="24"
        id="connector26pin"
        cx="1381.218"
        cy="174.32016"
        fill="#ffffff"
        stroke="#ffbf00"
        stroke-width="10"
      />
      <circle
        r="24"
        id="connector27pin"
        cx="1381.218"
        cy="74.336098"
        fill="#ffffff"
        stroke="#ffbf00"
        stroke-width="10"
      />
      <circle
        r="24"
        id="connector28pin"
        cx="1481.246"
        cy="174.32016"
        fill="#ffffff"
        stroke="#ffbf00"
        stroke-width="10"
      />
      <circle
        r="24"
        id="connector29pin"
        cx="1481.246"
        cy="74.336098"
        fill="#ffffff"
        stroke="#ffbf00"
        stroke-width="10"
      />
      <circle
        r="24"
        id="connector30pin"
        cx="1581.2321"
        cy="174.32016"
        fill="#ffffff"
        stroke="#ffbf00"
        stroke-width="10"
      />
      <circle
        r="24"
        id="connector31pin"
        cx="1581.2321"
        cy="74.336098"
        fill="#ffffff"
        stroke="#ffbf00"
        stroke-width="10"
      />
      <circle
        r="24"
        id="connector32pin"
        cx="1681.2319"
        cy="174.32016"
        fill="#ffffff"
        stroke="#ffbf00"
        stroke-width="10"
      />
      <circle
        r="24"
        id="connector33pin"
        cx="1681.2319"
        cy="74.336098"
        fill="#ffffff"
        stroke="#ffbf00"
        stroke-width="10"
      />
      <circle
        r="24"
        id="connector34pin"
        cx="1781.2323"
        cy="174.32016"
        fill="#ffffff"
        stroke="#ffbf00"
        stroke-width="10"
      />
      <circle
        r="24"
        id="connector35pin"
        cx="1781.2323"
        cy="74.336098"
        fill="#ffffff"
        stroke="#ffbf00"
        stroke-width="10"
      />
      <circle
        r="24"
        id="connector36pin"
        cx="1881.2183"
        cy="174.32016"
        fill="#ffffff"
        stroke="#ffbf00"
        stroke-width="10"
      />
      <circle
        r="24"
        id="connector37pin"
        cx="1881.2183"
        cy="74.336098"
        fill="#ffffff"
        stroke="#ffbf00"
        stroke-width="10"
      />
      <circle
        r="24"
        id="connector38pin"
        cx="1981.246"
        cy="174.32016"
        fill="#ffffff"
        stroke="#ffbf00"
        stroke-width="10"
      />
      <circle
        r="24"
        id="connector39pin"
        cx="1981.246"
        cy="74.336098"
        fill="#ffffff"
        stroke="#ffbf00"
        stroke-width="10"
      />
    </g>
  </g>
</svg>
